<svg width="420" height="41" viewBox="0 0 420 41" fill="none" xmlns="http://www.w3.org/2000/svg">
<g clip-path="url(#clip0_7203_36)">
<path d="M0 33.51H46.48V29.41H0V33.51ZM46.48 11.46V7.39999L0 7.35999V11.46H46.48ZM0 18.43V22.45H44.25V18.43H0Z" fill="black"/>
<path d="M55.2002 33.4399V22.4499H89.4602C93.7802 22.4499 97.3202 19.2099 97.3202 14.8899C97.3202 10.5699 93.7102 7.43994 89.4602 7.43994H50.9502V11.5399H89.5002C91.5102 11.5399 93.2202 13.0299 93.2202 14.9699C93.2202 16.9099 91.5102 18.4299 89.5002 18.4299H50.9502V33.4399H55.2002Z" fill="black"/>
<path d="M104.95 33.5099V7.43994H100.67V33.5099H104.95Z" fill="black"/>
<path d="M108.31 20.4399C108.31 27.7399 114.64 33.4799 122.02 33.4799H154.83V29.4199H122.02C116.66 29.4199 112.6 25.0999 112.6 20.4399C112.64 19.8799 112.67 19.4699 112.79 19.0599L112.9 18.5399C113.83 14.4799 117.7 11.5399 121.76 11.5399H154.8V7.43994H121.99C114.73 7.43994 108.32 13.1399 108.32 20.4399H108.31Z" fill="black"/>
<path d="M221.27 7.43994V33.5099H225.48V22.5199H263.43V33.5099H267.68V7.43994H263.43V18.4599H225.48V7.43994H221.27Z" fill="black"/>
<path d="M272.14 33.51H318.62V29.41H272.14V33.51ZM318.62 11.46V7.39999L272.14 7.35999V11.46H318.62ZM272.14 18.43V22.45H316.39V18.43H272.14Z" fill="black"/>
<path d="M323.09 11.57H362.08C363.87 11.76 365.36 13.25 365.36 15.03C365.36 16.81 363.87 18.23 362.08 18.49H323.12V33.54H327.37V22.55H356.01L365.92 33.54H370.95L361.45 22.52H361.6C363.83 22.48 365.55 21.81 367.04 20.47C372.14 16.11 368.98 7.46997 361.6 7.46997H323.09V11.57Z" fill="black"/>
<path d="M373.56 14.3999V26.6199C373.56 30.4899 376.87 33.5799 380.9 33.5799H412.67C416.69 33.5799 420.01 30.4899 420.01 26.6199V14.3999C420.01 10.5299 416.7 7.43994 412.67 7.43994H380.9C376.88 7.43994 373.56 10.5299 373.56 14.3999ZM377.73 26.5799V14.3599C377.73 12.8299 379.11 11.5299 380.86 11.5299H412.63C414.38 11.5299 415.76 12.8299 415.76 14.3599V26.5799C415.76 28.0699 414.38 29.4499 412.63 29.4499H380.86C379.11 29.4499 377.73 28.0699 377.73 26.5799Z" fill="black"/>
<path d="M188.04 40.88C184.79 40.88 181.56 40.1 178.7 38.62C178.13 38.33 177.74 37.78 177.64 37.15C177.54 36.52 177.75 35.88 178.2 35.43L203.03 10.6C203.48 10.15 204.12 9.94 204.75 10.04C205.38 10.14 205.93 10.53 206.22 11.1C207.7 13.97 208.48 17.2 208.48 20.44C208.48 31.71 199.31 40.88 188.04 40.88ZM183.15 36.14C184.72 36.63 186.36 36.88 188.04 36.88C197.1 36.88 204.48 29.51 204.48 20.44C204.48 18.75 204.23 17.12 203.74 15.55L183.14 36.15L183.15 36.14ZM171.64 30.86C171.54 30.86 171.43 30.86 171.33 30.84C170.7 30.74 170.15 30.35 169.86 29.78C168.38 26.91 167.6 23.68 167.6 20.44C167.6 9.17 176.77 0 188.04 0C191.29 0 194.52 0.78 197.38 2.25C197.95 2.54 198.34 3.09 198.44 3.72C198.54 4.35 198.33 4.99 197.88 5.44L173.05 30.27C172.67 30.65 172.16 30.86 171.64 30.86ZM188.04 4C178.98 4 171.6 11.37 171.6 20.44C171.6 22.13 171.85 23.76 172.34 25.33L192.93 4.74C191.36 4.25 189.72 4 188.04 4Z" fill="black"/>
<path d="M105 7.43994H101V33.4399H105V7.43994Z" fill="black"/>
</g>
<defs>
<clipPath id="clip0_7203_36">
<rect width="420" height="40.88" fill="white"/>
</clipPath>
</defs>
</svg>
