<svg xmlns="http://www.w3.org/2000/svg" version="1.1" xmlns:xlink="http://www.w3.org/1999/xlink" width="120" height="120" x="0" y="0" viewBox="0 0 120 120" style="enable-background:new 0 0 512 512" xml:space="preserve" class=""><g><path fill="#3f51b5" d="M95.2 118h-67.2l-17.532 -70.999 26.112 -40.42C41.02 8.38 48.26 10 60 10c11.741 0 18.981 -1.62 23.42 -3.42h0.02l22.16 39.42zm0 0" opacity="1" data-original="#3f51b5"/><path fill="#f44335" d="m29.14 30.36 2.48 -2.98a9.454 9.454 0 0 1 7.3 -3.38H81.08a9.457 9.457 0 0 1 7.301 3.38l2.5 3.02 7.32 10.57 -10.88 44.77 -23.56 30.459a4.828 4.828 0 0 1 -7.52 0l-23.559 -30.459 -12.86 -44.728zm0 0" opacity="1" data-original="#f44335"/><path fill="#ff9801" d="m33.14 73.08 7.9 10.2L60 107.799l18.96 -24.52 7.9 -10.2 5.7 -28 -10.5 -12.66a1.313 1.313 0 0 0 -0.981 -0.419H38.92a1.312 1.312 0 0 0 -0.98 0.42l-10.5 12.66zm0 0" opacity="1" data-original="#ff9801"/><path fill="#ffeb3a" d="m60 32 6.61 20h21.39l-17.304 10.902 6.608 19.098L60 70.196l-17.303 11.804 6.607 -19.098 -17.303 -10.902h21.39zm0 0" opacity="1" data-original="#ffeb3a"/><path fill="#00bcd4" d="m29.681 99.74 5.4 15.6a2.002 2.002 0 0 1 -0.255 1.815 1.997 1.997 0 0 1 -1.625 0.845H4a2 2 0 0 1 -1.999 -1.999v-16h26a5.184 5.184 0 0 0 1.68 -0.26zM2 44V4c0 -1.104 0.895 -1.999 1.999 -1.999h31.28a1.998 1.998 0 0 1 1.613 0.817 2.002 2.002 0 0 1 0.296 1.782l-8.048 25.76 -4.28 13.72a4.046 4.046 0 0 0 -0.86 -0.08zm0 0" opacity="1" data-original="#00bcd4"/><path fill="#00838f" d="M118.001 4v112c0 1.104 -0.895 1.999 -2 1.999H86.8a2 2 0 0 1 -1.88 -2.66l5.4 -15.599 4.839 -55.661v-0.02l-4.279 -13.66 -8.06 -25.8a1.999 1.999 0 0 1 1.9 -2.599h31.28a2 2 0 0 1 2.001 1.999zm0 0" opacity="1" data-original="#00838f"/><path fill="#00bcd4" d="M112 4v112c0 1.104 -0.895 1.999 -1.999 1.999h-23.2a2 2 0 0 1 -1.88 -2.66l5.4 -15.599 4.839 -55.661v-0.02l-4.279 -13.66 -8.06 -25.8a1.999 1.999 0 0 1 1.9 -2.599h25.28c1.104 0 1.999 0.895 1.999 1.999zm0 0" opacity="1" data-original="#00bcd4"/><g fill="#3f51b5"><path d="M104 104c0 2.209 -1.791 4 -4 4s-4 -1.791 -4 -4 1.791 -4 4 -4 4 1.791 4 4zm6 -70c0 2.209 -1.791 4 -4 4s-4 -1.791 -4 -4c0 -2.209 1.791 -4 4 -4s4 1.791 4 4zM104 18c0 2.209 -1.791 4 -4 4s-4 -1.791 -4 -4 1.791 -4 4 -4 4 1.791 4 4zm0 0" fill="#3f51b5" opacity="1" data-original="#3f51b5"/></g><path fill="#ffe0b2" d="M14 52h14c1.196 0 2.365 0.355 3.36 1.02a6 6 0 0 1 2.39 6.735 5.999 5.999 0 0 1 -5.75 4.245 5.988 5.988 0 0 1 5.14 9.08 5.637 5.637 0 0 1 -0.9 1.16 5.985 5.985 0 0 1 -4.24 1.76c3.313 0 5.999 2.686 5.999 6 0 3.313 -2.686 6 -5.999 6a6 6 0 0 1 4.24 10.24 5.721 5.721 0 0 1 -2.56 1.501 5.184 5.184 0 0 1 -1.68 0.26H2V43.999l22 0.001c0.288 -0.005 0.577 0.023 0.86 0.08a5.909 5.909 0 0 1 2.58 1 6.518 6.518 0 0 1 0.8 0.68 5.985 5.985 0 0 1 1.76 4.24 2 2 0 0 1 -1.999 2zm0 0" opacity="1" data-original="#ffe0b2"/><path fill="#bfa885" d="M118.001 44v56H92c-3.314 0 -6 -2.686 -6 -6 0 -3.313 2.686 -6 6 -6a5.981 5.981 0 0 1 -4.24 -1.76 5.307 5.307 0 0 1 -0.44 -0.5 5.99 5.99 0 0 1 4.68 -9.74c-1.591 0 -3.117 -0.633 -4.24 -1.76a5.637 5.637 0 0 1 -0.9 -1.16 5.991 5.991 0 0 1 -0.117 -5.981 5.992 5.992 0 0 1 5.117 -3.099 6.001 6.001 0 0 1 -5.633 -4.31 6 6 0 0 1 2.413 -6.67 5.919 5.919 0 0 1 3.32 -1.02 2.013 2.013 0 0 1 -1.96 -2 5.986 5.986 0 0 1 1.761 -4.24 6.518 6.518 0 0 1 0.8 -0.68 5.898 5.898 0 0 1 2.599 -1v-0.02a6.004 6.004 0 0 1 0.84 -0.06zm0 0" opacity="1" data-original="#bfa885"/><path fill="#ffe0b2" d="M112 44v56h-20c-3.314 0 -6 -2.686 -6 -6 0 -3.313 2.686 -6 6 -6a5.981 5.981 0 0 1 -4.24 -1.76 5.307 5.307 0 0 1 -0.44 -0.5 5.99 5.99 0 0 1 4.68 -9.74c-1.591 0 -3.117 -0.633 -4.24 -1.76a5.637 5.637 0 0 1 -0.9 -1.16 5.991 5.991 0 0 1 -0.117 -5.981 5.992 5.992 0 0 1 5.117 -3.099 6.001 6.001 0 0 1 -5.633 -4.31 6 6 0 0 1 2.413 -6.67 5.919 5.919 0 0 1 3.32 -1.02 2.013 2.013 0 0 1 -1.96 -2 5.986 5.986 0 0 1 1.761 -4.24 6.518 6.518 0 0 1 0.8 -0.68 5.898 5.898 0 0 1 2.599 -1v-0.02a6.004 6.004 0 0 1 0.84 -0.06zm0 0" opacity="1" data-original="#ffe0b2"/><path d="M116 0H84.72a4.001 4.001 0 0 0 -3.226 1.632 3.998 3.998 0 0 0 -0.591 3.568l0.048 0.154A67.834 67.834 0 0 1 60 8a67.756 67.756 0 0 1 -20.95 -2.652l0.049 -0.154a3.998 3.998 0 0 0 -0.595 -3.563A3.999 3.999 0 0 0 35.28 0H4C1.791 0 0 1.791 0 4v112C0 118.209 1.791 120 4 120h29.201a4 4 0 0 0 3.777 -5.308l-4.8 -13.876a7.955 7.955 0 0 0 3.822 -6.816 7.57 7.57 0 0 0 -0.082 -0.8l18.743 24.224a6.825 6.825 0 0 0 5.34 2.577 6.825 6.825 0 0 0 5.341 -2.577l18.74 -24.224a7.568 7.568 0 0 0 -0.082 0.8 7.949 7.949 0 0 0 2.346 5.654 8.111 8.111 0 0 0 1.491 1.15l-4.8 13.886a4.003 4.003 0 0 0 0.515 3.623 4.001 4.001 0 0 0 3.248 1.687h29.2c2.209 0 4 -1.791 4 -4V4C120 1.791 118.209 0 116 0zM90 4h26V42h-19.39L84.72 4zm26 94H92c-2.209 0 -4 -1.791 -4 -4 0 -2.209 1.791 -4 4 -4h14c1.104 0 1.999 -0.895 1.999 -2a1.999 1.999 0 0 0 -1.999 -1.999h-14a3.966 3.966 0 0 1 -2.826 -1.174c-0.105 -0.107 -0.204 -0.22 -0.296 -0.339 -0.57 -0.703 -0.88 -1.582 -0.878 -2.487 0 -2.209 1.791 -4 4 -4h14c1.104 0 1.999 -0.895 1.999 -2a2 2 0 0 0 -1.999 -2h-14a3.967 3.967 0 0 1 -2.826 -1.174 3.672 3.672 0 0 1 -0.6 -0.774 3.987 3.987 0 0 1 3.426 -6.052h14c1.104 0 1.999 -0.895 1.999 -2.001 0 -1.104 -0.895 -1.999 -1.999 -1.999h-14a4 4 0 0 1 -3.836 -2.825 3.999 3.999 0 0 1 1.586 -4.492 4.038 4.038 0 0 1 2.25 -0.685h14c1.104 0 1.999 -0.895 1.999 -1.999a2 2 0 0 0 -1.999 -2.001h-14a3.964 3.964 0 0 1 1.174 -2.825 4.567 4.567 0 0 1 0.514 -0.444 3.889 3.889 0 0 1 1.719 -0.667c0.089 -0.01 0.176 -0.027 0.262 -0.049 0.111 -0.015 0.221 -0.015 0.33 -0.015h20zm-13.999 6c0 1.104 -0.896 2 -2.001 2a2 2 0 1 1 0 -4c1.104 0 2 0.895 2 2zm-70.001 -10a3.972 3.972 0 0 1 -2.97 3.85 3.198 3.198 0 0 1 -1.03 0.15H4V46h20.001a2.177 2.177 0 0 1 0.4 0.032c0.064 0.01 0.12 0.016 0.2 0.032a3.883 3.883 0 0 1 1.67 0.642 4.635 4.635 0 0 1 0.55 0.469 3.965 3.965 0 0 1 1.18 2.825H14a2 2 0 0 0 -1.999 2 1.999 1.999 0 0 0 1.999 1.999h14a3.975 3.975 0 0 1 4 4c0 2.209 -1.791 4.001 -4 4.001H14a2 2 0 0 0 -1.999 1.999 2 2 0 0 0 1.999 2.001h14c2.209 0 4 1.791 4 4a4.056 4.056 0 0 1 -0.6 2.09 3.551 3.551 0 0 1 -0.576 0.735 3.964 3.964 0 0 1 -2.824 1.174H14a2 2 0 0 0 -1.999 2 2 2 0 0 0 1.999 2h14c2.209 0 4 1.791 4 4 0 2.209 -1.791 4 -4 4H14a2 2 0 0 0 -1.999 1.999 2 2 0 0 0 1.999 2.001h14c2.209 0 4 1.791 4 4zm-1.062 -62.674 2.228 -2.676a7.496 7.496 0 0 1 5.754 -2.649h42.16a7.496 7.496 0 0 1 5.759 2.656l2.26 2.73 3.212 10.26 -8.723 -10.519A3.306 3.306 0 0 0 81.08 30H38.92a3.305 3.305 0 0 0 -2.518 1.144l-8.672 10.455zm37.862 32.23 4.632 13.386 -12.312 -8.4a2.002 2.002 0 0 0 -2.252 0l-12.312 8.4 4.643 -13.386a2 2 0 0 0 -0.821 -2.348l-11.452 -7.208h14.474a1.999 1.999 0 0 0 1.901 -1.371L60 38.374l4.71 14.254a1.999 1.999 0 0 0 1.9 1.371h14.464l-11.446 7.201a1.999 1.999 0 0 0 -0.829 2.355zm-36.8 -13.556a7.912 7.912 0 0 0 -1.852 -5.054l9.08 -10.946h18l-5.288 16zm36.056 0 -5.288 -16h18l9.079 10.946a7.912 7.912 0 0 0 -1.848 5.054zm-34.822 14c0.137 -0.12 0.289 -0.216 0.419 -0.346a7.864 7.864 0 0 0 2.25 -6.83l11 6.924 -5.704 16.474 -5.73 -7.4a7.824 7.824 0 0 0 -2.235 -8.822zM60 72.618l16.162 11.024L60 104.53l-16.162 -20.889zm18.8 7.6 -5.702 -16.474 11 -6.923a7.867 7.867 0 0 0 2.25 6.83c0.13 0.13 0.282 0.226 0.42 0.346a7.837 7.837 0 0 0 -2.232 8.819zM60 12a71.876 71.876 0 0 0 22.147 -2.835l4.454 14.235a11.568 11.568 0 0 0 -5.521 -1.4H38.92a11.588 11.588 0 0 0 -5.501 1.386l4.438 -14.218A71.946 71.946 0 0 0 60 12zM30 4h5.28l-8.044 25.76 -0.012 0.042 -3.8 12.199H4V4zM4 116v-14h16.438l1.622 6.487a1.999 1.999 0 0 0 1.94 1.513c0.164 0.001 0.329 -0.019 0.488 -0.06 1.071 -0.268 1.722 -1.355 1.454 -2.426l-1.38 -5.514h3.779l4.859 14zm58.178 -1.025a2.919 2.919 0 0 1 -4.356 0L35.102 85.6a7.546 7.546 0 0 0 0.446 -6.142l22.87 29.566a2 2 0 0 0 3.164 0l22.87 -29.561a7.859 7.859 0 0 0 -0.451 2.538 7.969 7.969 0 0 0 0.888 3.614zm24.622 1.025 4.858 -14.033c0.112 0 0.221 0.032 0.334 0.032h2.368a5.939 5.939 0 0 0 -0.361 2c0 3.313 2.687 6 6 6s6 -2.686 6 -6a5.97 5.97 0 0 0 -0.368 -2h10.367v14zm0 0" fill="#000000" opacity="1" data-original="#000000" class=""/><path d="M23.368 23.898a2 2 0 0 0 2.531 -1.266l1.999 -6a2.001 2.001 0 0 0 -1.268 -2.532 2.002 2.002 0 0 0 -2.531 1.268l-2.001 6a2 2 0 0 0 1.27 2.53zM17.368 39.898a2 2 0 0 0 2.53 -1.266l2.001 -6c0.349 -1.049 -0.219 -2.183 -1.268 -2.532 -1.049 -0.349 -2.184 0.219 -2.532 1.268l-1.999 6a2 2 0 0 0 0.11 1.528 1.997 1.997 0 0 0 1.16 1.001zm82.632 -5.898c0 3.314 2.686 6 6 6 3.313 0 5.999 -2.686 5.999 -6 0 -3.313 -2.686 -6 -5.999 -6 -3.314 0 -6 2.687 -6 6zm8 0a2 2 0 1 1 -4 0c0 -1.104 0.895 -1.999 2.001 -1.999 1.104 0 1.999 0.895 1.999 1.999zm-8 -10c3.313 0 6 -2.686 6 -5.999 0 -3.314 -2.687 -6 -6 -6s-6 2.686 -6 6c0 3.313 2.687 5.999 6 5.999zm0 -8c1.104 0 2 0.895 2 2 0 1.104 -0.896 1.999 -2 1.999a2 2 0 1 1 0 -4zm0 0" fill="#000000" opacity="1" data-original="#000000" class=""/></g></svg>