<svg width="375" height="334" viewBox="0 0 375 334" fill="none" xmlns="http://www.w3.org/2000/svg">
<g clip-path="url(#clip0_7215_197)">
<mask id="mask0_7215_197" style="mask-type:luminance" maskUnits="userSpaceOnUse" x="0" y="0" width="375" height="334">
<path d="M375 0H0V334H375V0Z" fill="white"/>
</mask>
<g mask="url(#mask0_7215_197)">
<path opacity="0.2" d="M367.469 118.33C350.269 66.69 305.279 23.25 251.069 10.4C189.809 -4.12999 123.979 19.54 73.829 54.4C55.529 67.12 38.459 82.22 25.219 100.24C-20.001 161.86 55.999 194.58 54.089 225.37C52.179 256.16 3.08904 262.89 40.609 305.23C78.129 347.57 196.489 337.94 288.859 288.87C319.359 272.67 348.639 250.14 363.239 217.95C378.109 185.12 378.069 150.17 367.469 118.33Z" fill="#DE474A"/>
<path opacity="0.2" d="M367.469 118.33C350.269 66.69 305.279 23.25 251.069 10.4C189.809 -4.12999 123.979 19.54 73.829 54.4C55.529 67.12 38.459 82.22 25.219 100.24C-20.001 161.86 55.999 194.58 54.089 225.37C52.179 256.16 3.08904 262.89 40.609 305.23C78.129 347.57 196.489 337.94 288.859 288.87C319.359 272.67 348.639 250.14 363.239 217.95C378.109 185.12 378.069 150.17 367.469 118.33Z" fill="white"/>
<path d="M118.059 281.34C107.789 288.06 96.2087 305.99 90.4187 313.27C84.6287 320.55 84.6387 331.01 82.2087 333.81C79.7787 336.61 71.3787 328.02 73.2087 321.67C75.0387 315.32 78.2087 314.02 77.5087 311.03C76.8087 308.04 75.0787 306.17 76.9487 302.25C78.8187 298.33 84.2287 302.07 89.6487 298.33C95.0687 294.59 100.479 278.53 107.199 261.73C113.919 244.93 128.119 245.29 129.799 242.68C131.479 240.07 140.999 206.07 150.719 207.76C160.439 209.45 177.999 226.62 172.409 236C166.819 245.38 160.269 245.16 152.409 250.57C144.549 255.98 145.499 257.11 140.269 262.71C135.039 268.31 131.269 269.25 128.499 269.99C128.499 269.99 124.579 274.29 122.149 277.46C119.719 280.63 118.059 281.34 118.059 281.34Z" fill="white"/>
<mask id="mask1_7215_197" style="mask-type:luminance" maskUnits="userSpaceOnUse" x="72" y="207" width="102" height="128">
<path d="M118.059 281.34C107.789 288.06 96.2087 305.99 90.4187 313.27C84.6287 320.55 84.6387 331.01 82.2087 333.81C79.7787 336.61 71.3787 328.02 73.2087 321.67C75.0387 315.32 78.2087 314.02 77.5087 311.03C76.8087 308.04 75.0787 306.17 76.9487 302.25C78.8187 298.33 84.2287 302.07 89.6487 298.33C95.0687 294.59 100.479 278.53 107.199 261.73C113.919 244.93 128.119 245.29 129.799 242.68C131.479 240.07 140.999 206.07 150.719 207.76C160.439 209.45 177.999 226.62 172.409 236C166.819 245.38 160.269 245.16 152.409 250.57C144.549 255.98 145.499 257.11 140.269 262.71C135.039 268.31 131.269 269.25 128.499 269.99C128.499 269.99 124.579 274.29 122.149 277.46C119.719 280.63 118.059 281.34 118.059 281.34Z" fill="white"/>
</mask>
<g mask="url(#mask1_7215_197)">
<path d="M99.3487 291.5C102.579 285.44 112.279 270.88 122.349 261.99C132.419 253.1 164.399 239.75 164.399 239.75L170.619 238.51C171.252 237.692 171.837 236.838 172.369 235.95C177.969 226.62 160.419 209.44 150.709 207.76C140.999 206.08 131.469 240.06 129.789 242.68C128.109 245.3 113.919 244.92 107.189 261.73C100.459 278.54 95.0486 294.6 89.6386 298.33C84.2286 302.06 78.8086 298.33 76.9386 302.25C75.0686 306.17 76.7486 308.04 77.4986 311.03C78.2486 314.02 75.0686 315.33 73.1986 321.67C71.3286 328.01 79.7386 336.61 82.1986 333.81C83.1187 332.388 83.7475 330.797 84.0486 329.13C82.5101 324.979 82.0658 320.502 82.7586 316.13C83.9986 306.06 96.1087 297.57 99.3487 291.5Z" fill="#DE474A"/>
<path opacity="0.5" d="M99.3487 291.5C102.579 285.44 112.279 270.88 122.349 261.99C132.419 253.1 164.399 239.75 164.399 239.75L170.619 238.51C171.252 237.692 171.837 236.838 172.369 235.95C177.969 226.62 160.419 209.44 150.709 207.76C140.999 206.08 131.469 240.06 129.789 242.68C128.109 245.3 113.919 244.92 107.189 261.73C100.459 278.54 95.0486 294.6 89.6386 298.33C84.2286 302.06 78.8086 298.33 76.9386 302.25C75.0686 306.17 76.7486 308.04 77.4986 311.03C78.2486 314.02 75.0686 315.33 73.1986 321.67C71.3286 328.01 79.7386 336.61 82.1986 333.81C83.1187 332.388 83.7475 330.797 84.0486 329.13C82.5101 324.979 82.0658 320.502 82.7586 316.13C83.9986 306.06 96.1087 297.57 99.3487 291.5Z" fill="white"/>
</g>
<path d="M118.059 281.34C107.789 288.06 96.2087 305.99 90.4187 313.27C84.6287 320.55 84.6387 331.01 82.2087 333.81C79.7787 336.61 71.3787 328.02 73.2087 321.67C75.0387 315.32 78.2087 314.02 77.5087 311.03C76.8087 308.04 75.0787 306.17 76.9487 302.25C78.8187 298.33 84.2287 302.07 89.6487 298.33C95.0687 294.59 100.479 278.53 107.199 261.73C113.919 244.93 128.119 245.29 129.799 242.68C131.479 240.07 140.999 206.07 150.719 207.76C160.439 209.45 177.999 226.62 172.409 236C166.819 245.38 160.269 245.16 152.409 250.57C144.549 255.98 145.499 257.11 140.269 262.71C135.039 268.31 131.269 269.25 128.499 269.99C128.499 269.99 124.579 274.29 122.149 277.46C119.719 280.63 118.059 281.34 118.059 281.34Z" stroke="#263238" stroke-miterlimit="10" stroke-linecap="round"/>
<path d="M116.639 282.34C114.363 282.199 112.127 281.671 110.029 280.78C105.929 279.06 104.319 274.61 103.719 270.67C98.5586 283.92 94.1186 295.27 89.7186 298.33C84.2986 302.07 78.8886 298.33 77.0186 302.25C75.1486 306.17 76.8286 308.04 77.5786 311.03C78.3286 314.02 75.1486 315.33 73.2786 321.67C71.4086 328.01 79.8186 336.61 82.2786 333.81C84.7386 331.01 84.7086 320.55 90.4886 313.27C95.9986 306.32 106.739 289.69 116.639 282.34Z" fill="#DE474A"/>
<mask id="mask2_7215_197" style="mask-type:luminance" maskUnits="userSpaceOnUse" x="73" y="270" width="44" height="65">
<path d="M116.639 282.34C114.363 282.199 112.127 281.671 110.029 280.78C105.929 279.06 104.319 274.61 103.719 270.67C98.5586 283.92 94.1186 295.27 89.7186 298.33C84.2986 302.07 78.8886 298.33 77.0186 302.25C75.1486 306.17 76.8286 308.04 77.5786 311.03C78.3286 314.02 75.1486 315.33 73.2786 321.67C71.4086 328.01 79.8186 336.61 82.2786 333.81C84.7386 331.01 84.7086 320.55 90.4886 313.27C95.9986 306.32 106.739 289.69 116.639 282.34Z" fill="white"/>
</mask>
<g mask="url(#mask2_7215_197)">
<path opacity="0.2" d="M82.2082 333.81C82.3498 333.641 82.4769 333.46 82.5882 333.27L82.6782 333.12C82.7882 332.92 82.8982 332.7 83.0082 332.45C83.0082 332.45 83.0082 332.36 83.0582 332.32C83.1482 332.1 83.2382 331.87 83.3182 331.63C83.3494 331.555 83.3761 331.478 83.3982 331.4C83.4982 331.12 83.5882 330.83 83.6782 330.53L83.7682 330.21C83.8282 329.98 83.8983 329.74 83.9683 329.49L84.0582 329.13C82.5197 324.979 82.0754 320.502 82.7682 316.13C83.9782 306.02 96.1082 297.53 99.3482 291.46C101.764 287.14 104.453 282.978 107.399 279C105.189 276.84 104.169 273.6 103.719 270.64L102.839 272.88L102.699 273.26L101.819 275.5L100.989 277.6L100.849 277.95C100.579 278.63 100.309 279.3 100.039 279.95L99.8982 280.3C99.6282 280.97 99.3582 281.63 99.0882 282.3L98.2882 284.18L98.1382 284.53C97.8782 285.13 97.6182 285.71 97.3582 286.28L97.2382 286.56L96.5082 288.14L96.4282 288.31C96.1682 288.85 95.9182 289.37 95.6682 289.87C95.6182 289.98 95.5582 290.08 95.5082 290.17C95.2582 290.67 95.0082 291.17 94.7582 291.62L94.6682 291.79L93.9582 293.04L93.8482 293.23C93.5982 293.65 93.3582 294.04 93.1082 294.42L92.9582 294.64C92.7082 295.02 92.4583 295.37 92.2183 295.7L92.1482 295.78C91.9182 296.09 91.6782 296.38 91.4482 296.65L91.3182 296.8C91.0782 297.08 90.8282 297.32 90.5882 297.55L90.4482 297.68C90.2107 297.895 89.9602 298.095 89.6982 298.28C88.2136 299.296 86.4908 299.909 84.6982 300.06C83.6982 300.16 82.8382 300.16 81.9882 300.17C81.2058 300.157 80.4235 300.204 79.6482 300.31C79.0741 300.359 78.5233 300.56 78.0524 300.892C77.5814 301.224 77.2074 301.676 76.9683 302.2C76.4634 303.184 76.1735 304.265 76.1182 305.37C76.1077 305.728 76.1278 306.086 76.1782 306.44C76.1985 306.608 76.2286 306.775 76.2682 306.94C76.5482 308.27 77.1582 309.49 77.5282 310.94C77.6122 311.283 77.6492 311.637 77.6382 311.99C77.5582 313.33 76.6382 314.46 75.6382 316.21C74.6111 317.887 73.8108 319.693 73.2582 321.58C72.8327 323.235 72.9269 324.981 73.5282 326.58C73.9712 327.828 74.5836 329.009 75.3482 330.09C75.5982 330.45 75.8582 330.79 76.1282 331.09C78.2882 333.77 80.9982 335.21 82.2082 333.81Z" fill="black"/>
</g>
<path d="M116.639 282.34C114.363 282.199 112.127 281.671 110.029 280.78C105.929 279.06 104.319 274.61 103.719 270.67C98.5586 283.92 94.1186 295.27 89.7186 298.33C84.2986 302.07 78.8886 298.33 77.0186 302.25C75.1486 306.17 76.8286 308.04 77.5786 311.03C78.3286 314.02 75.1486 315.33 73.2786 321.67C71.4086 328.01 79.8186 336.61 82.2786 333.81C84.7386 331.01 84.7086 320.55 90.4886 313.27C95.9986 306.32 106.739 289.69 116.639 282.34Z" stroke="#263238" stroke-miterlimit="10" stroke-linecap="round"/>
<path d="M73 181.42C73 181.42 82.15 193.74 91.86 193.6C101.57 193.46 107.23 184.86 112.22 185.45C115.909 186.008 119.524 186.974 123 188.33C123 188.33 157.68 141.86 165.66 133.99C173.64 126.12 178.25 117.11 167.29 114.33C156.33 111.55 133.44 116.48 121.96 126.57C110.48 136.66 74.1 176.81 74.1 176.81L73 181.42Z" fill="#DE474A"/>
<mask id="mask3_7215_197" style="mask-type:luminance" maskUnits="userSpaceOnUse" x="73" y="113" width="101" height="81">
<path d="M73 181.42C73 181.42 82.15 193.74 91.86 193.6C101.57 193.46 107.23 184.86 112.22 185.45C115.909 186.008 119.524 186.974 123 188.33C123 188.33 157.68 141.86 165.66 133.99C173.64 126.12 178.25 117.11 167.29 114.33C156.33 111.55 133.44 116.48 121.96 126.57C110.48 136.66 74.1 176.81 74.1 176.81L73 181.42Z" fill="white"/>
</mask>
<g mask="url(#mask3_7215_197)">
<path opacity="0.5" d="M73 181.42C73 181.42 82.15 193.74 91.86 193.6C101.57 193.46 107.23 184.86 112.22 185.45C115.909 186.008 119.524 186.974 123 188.33C123 188.33 157.68 141.86 165.66 133.99C173.64 126.12 178.25 117.11 167.29 114.33C156.33 111.55 133.44 116.48 121.96 126.57C110.48 136.66 74.1 176.81 74.1 176.81L73 181.42Z" fill="black" stroke="#263238" stroke-miterlimit="10" stroke-linecap="round"/>
</g>
<path d="M73 181.42C73 181.42 82.15 193.74 91.86 193.6C101.57 193.46 107.23 184.86 112.22 185.45C115.909 186.008 119.524 186.974 123 188.33C123 188.33 157.68 141.86 165.66 133.99C173.64 126.12 178.25 117.11 167.29 114.33C156.33 111.55 133.44 116.48 121.96 126.57C110.48 136.66 74.1 176.81 74.1 176.81L73 181.42Z" stroke="#263238" stroke-miterlimit="10" stroke-linecap="round"/>
<path d="M203.999 72.92C203.999 72.92 206.799 66.2 212.399 63.21C216.133 61.3482 220.228 60.3243 224.399 60.21L238.959 51.21C238.959 51.21 243.069 37.01 257.079 31.21C271.089 25.41 330.659 3.76002 331.219 3.39002C331.779 3.02002 338.689 -0.349975 338.689 0.210025C338.697 1.17192 338.506 2.12509 338.129 3.01003C337.569 4.51003 323.749 13.47 323.749 13.47C323.749 13.47 330.469 9.36003 330.659 11.47C330.849 13.58 330.659 14.08 328.229 15.58C325.799 17.08 321.319 19.87 320.389 20.43C319.459 20.99 315.909 24.35 313.099 24.73C310.289 25.11 303.209 25.66 302.649 26.22C302.089 26.78 283.779 44.52 277.809 49.57C271.839 54.62 262.119 59.28 262.119 59.28C262.119 59.28 249.049 73.28 239.119 80.57C229.189 87.86 222.499 89.72 222.499 89.72L221.749 90.46C221.749 90.46 222.309 97 222.309 97.75C222.309 98.5 227.729 116.98 225.309 127.25C222.889 137.52 218.209 141.82 218.209 141.82C218.209 141.82 217.469 153.96 214.479 158.44C211.489 162.92 203.269 168.34 197.479 172.64C191.689 176.94 190.949 186.46 190.569 187.58C190.189 188.7 185.569 207.75 183.099 212.41C180.629 217.07 173.099 219.7 171.849 220.07C171.169 220.27 164.209 230.83 157.509 230.31C153.175 230.004 149.098 228.14 146.031 225.064C142.963 221.987 141.112 217.905 140.819 213.57C140.713 211.725 140.78 209.873 141.019 208.04C142.509 196.64 147.019 191.91 147.019 191.91C147.019 191.91 156.589 154.52 155.649 144.62C154.709 134.72 154.529 128.56 157.329 122.96C160.129 117.36 169.279 108.77 183.479 102.6C197.679 96.43 199.349 92.33 199.349 85.24C199.493 80.732 201.128 76.399 203.999 72.92Z" fill="white"/>
<mask id="mask4_7215_197" style="mask-type:luminance" maskUnits="userSpaceOnUse" x="140" y="0" width="199" height="231">
<path d="M203.999 72.92C203.999 72.92 206.799 66.2 212.399 63.21C216.133 61.3482 220.228 60.3243 224.399 60.21L238.959 51.21C238.959 51.21 243.069 37.01 257.079 31.21C271.089 25.41 330.659 3.76002 331.219 3.39002C331.779 3.02002 338.689 -0.349975 338.689 0.210025C338.697 1.17192 338.506 2.12509 338.129 3.01003C337.569 4.51003 323.749 13.47 323.749 13.47C323.749 13.47 330.469 9.36003 330.659 11.47C330.849 13.58 330.659 14.08 328.229 15.58C325.799 17.08 321.319 19.87 320.389 20.43C319.459 20.99 315.909 24.35 313.099 24.73C310.289 25.11 303.209 25.66 302.649 26.22C302.089 26.78 283.779 44.52 277.809 49.57C271.839 54.62 262.119 59.28 262.119 59.28C262.119 59.28 249.049 73.28 239.119 80.57C229.189 87.86 222.499 89.72 222.499 89.72L221.749 90.46C221.749 90.46 222.309 97 222.309 97.75C222.309 98.5 227.729 116.98 225.309 127.25C222.889 137.52 218.209 141.82 218.209 141.82C218.209 141.82 217.469 153.96 214.479 158.44C211.489 162.92 203.269 168.34 197.479 172.64C191.689 176.94 190.949 186.46 190.569 187.58C190.189 188.7 185.569 207.75 183.099 212.41C180.629 217.07 173.099 219.7 171.849 220.07C171.169 220.27 164.209 230.83 157.509 230.31C153.175 230.004 149.098 228.14 146.031 225.064C142.963 221.987 141.112 217.905 140.819 213.57C140.713 211.725 140.78 209.873 141.019 208.04C142.509 196.64 147.019 191.91 147.019 191.91C147.019 191.91 156.589 154.52 155.649 144.62C154.709 134.72 154.529 128.56 157.329 122.96C160.129 117.36 169.279 108.77 183.479 102.6C197.679 96.43 199.349 92.33 199.349 85.24C199.493 80.732 201.128 76.399 203.999 72.92Z" fill="white"/>
</mask>
<g mask="url(#mask4_7215_197)">
<path d="M224.789 109.62L224.679 109.57C224.679 109.57 223.869 121.7 221.849 129.79C219.829 137.88 211.339 143.13 211.339 143.13L206.889 155.26C206.889 155.26 196.779 164.55 190.309 164.55C183.839 164.55 182.999 159.3 182.999 159.3C176.909 154.12 163.699 150.55 155.129 152.57C153.789 163.16 150.059 179.18 148.129 187.12C151.739 189.05 157.529 190.87 166.019 190.03C174.79 189.073 183.357 186.748 191.409 183.14C192.259 179.74 193.909 175.24 197.409 172.65L199.359 171.22C193.499 173.66 186.059 181.61 180.589 182.34C174.519 183.15 172.499 181.94 172.909 179.51C173.319 177.08 181.729 178.62 184.629 177.51C187.529 176.4 185.039 175.9 178.969 175.09C172.899 174.28 174.119 171.85 174.119 171.85C174.119 171.85 183.969 172.67 185.839 171.85C187.709 171.03 200.839 167.85 206.839 162.55C212.839 157.25 213.359 146 213.359 146L218.019 143.67C218.119 142.56 218.159 141.87 218.159 141.87C218.159 141.87 222.829 137.58 225.259 127.3C226.429 122.32 225.779 115.48 224.789 109.62Z" fill="#DE474A"/>
<path d="M274.148 45.33C262.468 50.39 260.148 48.83 260.148 48.83C261.16 49.5598 262.11 50.3726 262.988 51.26C264.678 52.9 262.478 58.17 256.248 62.85C250.018 67.53 229.768 80 226.268 80C222.768 80 222.768 68.33 222.768 68.33C221.294 75.5684 220.997 82.997 221.888 90.33L222.458 89.77C222.458 89.77 229.178 87.9 239.078 80.62C248.978 73.34 262.078 59.33 262.078 59.33C262.078 59.33 271.788 54.66 277.768 49.62C281.048 46.85 288.038 40.25 293.768 34.77C287.477 38.7355 280.922 42.2638 274.148 45.33Z" fill="#DE474A"/>
<path opacity="0.5" d="M274.148 45.33C262.468 50.39 260.148 48.83 260.148 48.83C261.16 49.5598 262.11 50.3726 262.988 51.26C264.678 52.9 262.478 58.17 256.248 62.85C250.018 67.53 229.768 80 226.268 80C222.768 80 222.768 68.33 222.768 68.33C221.294 75.5684 220.997 82.997 221.888 90.33L222.458 89.77C222.458 89.77 229.178 87.9 239.078 80.62C248.978 73.34 262.078 59.33 262.078 59.33C262.078 59.33 271.788 54.66 277.768 49.62C281.048 46.85 288.038 40.25 293.768 34.77C287.477 38.7355 280.922 42.2638 274.148 45.33Z" fill="white"/>
<path opacity="0.5" d="M224.789 109.62L224.679 109.57C224.679 109.57 223.869 121.7 221.849 129.79C219.829 137.88 211.339 143.13 211.339 143.13L206.889 155.26C206.889 155.26 196.779 164.55 190.309 164.55C183.839 164.55 182.999 159.3 182.999 159.3C176.909 154.12 163.699 150.55 155.129 152.57C153.789 163.16 150.059 179.18 148.129 187.12C151.739 189.05 157.529 190.87 166.019 190.03C174.79 189.073 183.357 186.748 191.409 183.14C192.259 179.74 193.909 175.24 197.409 172.65L199.359 171.22C193.499 173.66 186.059 181.61 180.589 182.34C174.519 183.15 172.499 181.94 172.909 179.51C173.319 177.08 181.729 178.62 184.629 177.51C187.529 176.4 185.039 175.9 178.969 175.09C172.899 174.28 174.119 171.85 174.119 171.85C174.119 171.85 183.969 172.67 185.839 171.85C187.709 171.03 200.839 167.85 206.839 162.55C212.839 157.25 213.359 146 213.359 146L218.019 143.67C218.119 142.56 218.159 141.87 218.159 141.87C218.159 141.87 222.829 137.58 225.259 127.3C226.429 122.32 225.779 115.48 224.789 109.62Z" fill="white"/>
</g>
<path d="M203.999 72.92C203.999 72.92 206.799 66.2 212.399 63.21C216.133 61.3482 220.228 60.3243 224.399 60.21L238.959 51.21C238.959 51.21 243.069 37.01 257.079 31.21C271.089 25.41 330.659 3.76002 331.219 3.39002C331.779 3.02002 338.689 -0.349975 338.689 0.210025C338.697 1.17192 338.506 2.12509 338.129 3.01003C337.569 4.51003 323.749 13.47 323.749 13.47C323.749 13.47 330.469 9.36003 330.659 11.47C330.849 13.58 330.659 14.08 328.229 15.58C325.799 17.08 321.319 19.87 320.389 20.43C319.459 20.99 315.909 24.35 313.099 24.73C310.289 25.11 303.209 25.66 302.649 26.22C302.089 26.78 283.779 44.52 277.809 49.57C271.839 54.62 262.119 59.28 262.119 59.28C262.119 59.28 249.049 73.28 239.119 80.57C229.189 87.86 222.499 89.72 222.499 89.72L221.749 90.46C221.749 90.46 222.309 97 222.309 97.75C222.309 98.5 227.729 116.98 225.309 127.25C222.889 137.52 218.209 141.82 218.209 141.82C218.209 141.82 217.469 153.96 214.479 158.44C211.489 162.92 203.269 168.34 197.479 172.64C191.689 176.94 190.949 186.46 190.569 187.58C190.189 188.7 185.569 207.75 183.099 212.41C180.629 217.07 173.099 219.7 171.849 220.07C171.169 220.27 164.209 230.83 157.509 230.31C153.175 230.004 149.098 228.14 146.031 225.064C142.963 221.987 141.112 217.905 140.819 213.57C140.713 211.725 140.78 209.873 141.019 208.04C142.509 196.64 147.019 191.91 147.019 191.91C147.019 191.91 156.589 154.52 155.649 144.62C154.709 134.72 154.529 128.56 157.329 122.96C160.129 117.36 169.279 108.77 183.479 102.6C197.679 96.43 199.349 92.33 199.349 85.24C199.493 80.732 201.128 76.399 203.999 72.92Z" stroke="#263238" stroke-miterlimit="10" stroke-linecap="round"/>
<path d="M217.993 137.404C219.968 129.007 217.212 121.174 211.836 119.909C206.46 118.644 200.5 124.426 198.524 132.824C196.548 141.221 199.305 149.054 204.681 150.319C210.057 151.584 216.017 145.802 217.993 137.404Z" fill="#DE474A"/>
<path d="M184 172.65C173.91 174.89 170 170.03 170 170.03C170 170.03 171.12 177.5 181.77 178.62" stroke="#263238" stroke-linecap="round" stroke-linejoin="round"/>
<path d="M207.709 127.64C207.709 127.64 213.499 141.64 208.829 152.29C204.159 162.94 197.429 167 184.739 169.1" stroke="#263238" stroke-miterlimit="10" stroke-linecap="round"/>
<path d="M195.57 172.83C195.57 172.83 187.91 179.74 181.93 181.98C175.95 184.22 171.29 188.15 166.25 181.42" stroke="#263238" stroke-miterlimit="10" stroke-linecap="round"/>
<path d="M255.7 51.44C255.7 51.44 260.37 48.27 262.98 51.26C265.59 54.25 262.05 59.26 262.05 59.26" stroke="#263238" stroke-linecap="round" stroke-linejoin="round"/>
<path d="M223.21 65.26C222.198 70.2593 221.46 75.3102 221 80.39C220.74 83.7681 220.99 87.166 221.74 90.47" stroke="#263238" stroke-linecap="round" stroke-linejoin="round"/>
<path d="M179.229 133.16L190.419 127.22" stroke="#263238" stroke-miterlimit="10" stroke-linecap="round"/>
<path d="M331.149 3.45004C330.649 3.78004 283.339 21 263.149 28.85C264.969 28.93 274.509 29.73 277.039 38C278.151 41.5263 278.665 45.214 278.559 48.91C285.199 43.14 302.089 26.77 302.629 26.23C303.169 25.69 310.279 25.11 313.079 24.74C315.879 24.37 319.429 21 320.369 20.44C321.309 19.88 325.779 17.08 328.209 15.59C330.639 14.1 330.829 13.53 330.639 11.48C330.449 9.43004 323.729 13.48 323.729 13.48C323.729 13.48 337.549 4.48004 338.109 3.02004C338.486 2.13509 338.677 1.18194 338.669 0.220042C338.619 -0.289958 331.709 3.07004 331.149 3.45004Z" fill="#DE474A" stroke="#263238" stroke-linecap="round" stroke-linejoin="round"/>
<path d="M323.68 13.53L317.14 16.89" stroke="#263238" stroke-linecap="round" stroke-linejoin="round"/>
<path d="M191.849 181.65C189.759 182.46 187.119 183.55 184.599 184.76C177.601 188.128 170.054 190.208 162.319 190.9C156.239 191.41 151.069 188.69 148.239 186.77C147.469 189.93 146.969 191.92 146.969 191.92C146.969 191.92 142.459 196.65 140.969 208.05C140.729 209.883 140.662 211.734 140.769 213.58C141.062 217.915 142.913 221.997 145.981 225.074C149.048 228.15 153.125 230.014 157.459 230.32C164.159 230.84 171.119 220.32 171.799 220.08C173.099 219.71 180.629 217.08 183.049 212.42C185.469 207.76 190.149 188.71 190.519 187.59C190.699 187.05 190.999 184.56 191.849 181.65Z" fill="#263238" stroke="#263238" stroke-miterlimit="10" stroke-linecap="round"/>
<path d="M151.8 197.43C151.8 197.43 159.8 193.98 167.88 196.85" stroke="white" stroke-width="0.75" stroke-linecap="round" stroke-linejoin="round"/>
<path d="M168.68 187.61C158.37 188.77 152.4 185 149.37 182.02C148.68 185.02 148.08 187.46 147.64 189.21C152.924 192.5 159.164 193.909 165.35 193.21C176.47 191.84 186.56 187.29 191.03 185.03C191.07 184.797 191.12 184.557 191.18 184.31C191.33 183.58 191.53 182.79 191.77 181.95C191.77 181.9 191.77 181.85 191.82 181.79C191.9 181.53 191.98 181.26 192.07 180.99C192.074 180.95 192.074 180.91 192.07 180.87C192.378 179.946 192.742 179.041 193.16 178.16C185.92 183.31 177.502 186.559 168.68 187.61Z" fill="#DE474A" stroke="#263238" stroke-miterlimit="10" stroke-linecap="round"/>
<path d="M137.359 122C137.359 122 135.549 122.92 142.079 118.63C148.609 114.34 146.639 120.55 151.079 109.53C155.519 98.51 160.419 90.3 168.449 87.31C176.479 84.32 200.199 88.62 200.199 88.62L205.799 92.54L197.999 107.66C196.121 106.736 194.067 106.223 191.975 106.158C189.883 106.092 187.801 106.475 185.869 107.28C179.519 110.08 176.149 113.44 176.869 116.43C177.589 119.42 183.589 127.64 183.589 127.64C183.589 127.64 155.309 116.53 150.829 118.95C146.349 121.37 132.699 126.33 131.949 126.71C131.199 127.09 137.359 122 137.359 122Z" fill="#DE474A" stroke="#263238" stroke-miterlimit="10" stroke-linecap="round"/>
<path d="M154.77 113.25C155.72 111.86 156.77 110.25 157.84 108.4C162.7 100.19 172.41 96.64 172.41 96.64" stroke="#263238" stroke-miterlimit="10" stroke-linecap="round"/>
<path d="M173.12 105.61C170.498 106.253 168.03 107.408 165.857 109.009C163.684 110.611 161.85 112.626 160.46 114.94" stroke="#263238" stroke-miterlimit="10" stroke-linecap="round"/>
<path d="M167.93 132.31C167.93 132.31 156.54 130.63 147.93 137.91C139.32 145.19 140.29 153 140.29 153C140.29 153 131.88 156.73 130.2 161C129.218 163.523 128.547 166.155 128.2 168.84C128.2 168.84 123.72 173.14 119.98 177.43C116.24 181.72 113.07 182.43 112.32 188.08C111.57 193.73 111.95 207.5 116.06 221.13C120.17 234.76 122.97 240.74 124.06 243.13C125.15 245.52 134.89 257.88 136.57 258.26C138.25 258.64 139.93 259 141.24 258.26C142.55 257.52 152.24 255.26 151.89 252.47C151.818 250.98 151.294 249.547 150.39 248.36L150.02 247.8C150.02 247.8 151.7 244.62 150.58 243.13C149.46 241.64 148.52 241.45 146.47 239.58C144.42 237.71 143.3 237.15 140.87 237.15C138.44 237.15 135.87 237.34 135.87 237.34C135.87 237.34 132.13 235.84 132.13 225.01C132.13 214.18 135.49 204.84 137.13 200.01C138.12 197.248 138.687 194.352 138.81 191.42C138.81 191.42 140.12 193.29 149.27 188.99C158.42 184.69 160.48 172.56 160.48 172.56L147 174.7C153.599 174.121 160.113 172.807 166.42 170.78C176.88 167.42 181.36 166.86 185.42 150.98" fill="white"/>
<mask id="mask5_7215_197" style="mask-type:luminance" maskUnits="userSpaceOnUse" x="112" y="132" width="74" height="127">
<path d="M167.93 132.31C167.93 132.31 156.54 130.63 147.93 137.91C139.32 145.19 140.29 153 140.29 153C140.29 153 131.88 156.73 130.2 161C129.218 163.523 128.547 166.155 128.2 168.84C128.2 168.84 123.72 173.14 119.98 177.43C116.24 181.72 113.07 182.43 112.32 188.08C111.57 193.73 111.95 207.5 116.06 221.13C120.17 234.76 122.97 240.74 124.06 243.13C125.15 245.52 134.89 257.88 136.57 258.26C138.25 258.64 139.93 259 141.24 258.26C142.55 257.52 152.24 255.26 151.89 252.47C151.818 250.98 151.294 249.547 150.39 248.36L150.02 247.8C150.02 247.8 151.7 244.62 150.58 243.13C149.46 241.64 148.52 241.45 146.47 239.58C144.42 237.71 143.3 237.15 140.87 237.15C138.44 237.15 135.87 237.34 135.87 237.34C135.87 237.34 132.13 235.84 132.13 225.01C132.13 214.18 135.49 204.84 137.13 200.01C138.12 197.248 138.687 194.352 138.81 191.42C138.81 191.42 140.12 193.29 149.27 188.99C158.42 184.69 160.48 172.56 160.48 172.56L147 174.7C153.599 174.121 160.113 172.807 166.42 170.78C176.88 167.42 181.36 166.86 185.42 150.98" fill="white"/>
</mask>
<g mask="url(#mask5_7215_197)">
<path d="M150.17 166.93C148.25 164.36 159.17 156.93 162.06 154.08C164.95 151.23 152.74 158.9 149.85 159.54C146.96 160.18 144.39 158.25 146 149.26C147.162 143.611 149.905 138.409 153.91 134.26C151.737 135.162 149.714 136.389 147.91 137.9C139.32 145.18 140.26 153.03 140.26 153.03C140.26 153.03 131.85 156.76 130.17 161.03C129.188 163.553 128.517 166.185 128.17 168.87C128.17 168.87 123.69 173.17 119.95 177.46C116.21 181.75 113.04 182.46 112.29 188.11C111.54 193.76 111.92 207.53 116.03 221.16C120.14 234.79 122.94 240.77 124.03 243.16C125.12 245.55 134.86 257.91 136.54 258.29C138.22 258.67 139.9 259.03 141.21 258.29C142.52 257.55 152.21 255.29 151.86 252.5C151.777 251.823 151.64 251.155 151.45 250.5C147.87 250.95 141.32 253.24 139.56 253.24C137.64 253.24 135.71 250.35 132.82 247.13C129.93 243.91 125.43 235.57 124.82 225.29C124.21 215.01 128.67 205.37 128.67 200.55C128.67 195.73 122.89 206.98 124.17 202.16C125.45 197.34 130.6 190.27 134.45 188.34C138.3 186.41 142.81 185.13 144.45 181.92C146.09 178.71 138.67 180.92 141.24 178.38C143.81 175.84 160.52 172.54 165.98 169.38C171.44 166.22 152.1 169.5 150.17 166.93Z" fill="#DE474A"/>
<path opacity="0.5" d="M150.17 166.93C148.25 164.36 159.17 156.93 162.06 154.08C164.95 151.23 152.74 158.9 149.85 159.54C146.96 160.18 144.39 158.25 146 149.26C147.162 143.611 149.905 138.409 153.91 134.26C151.737 135.162 149.714 136.389 147.91 137.9C139.32 145.18 140.26 153.03 140.26 153.03C140.26 153.03 131.85 156.76 130.17 161.03C129.188 163.553 128.517 166.185 128.17 168.87C128.17 168.87 123.69 173.17 119.95 177.46C116.21 181.75 113.04 182.46 112.29 188.11C111.54 193.76 111.92 207.53 116.03 221.16C120.14 234.79 122.94 240.77 124.03 243.16C125.12 245.55 134.86 257.91 136.54 258.29C138.22 258.67 139.9 259.03 141.21 258.29C142.52 257.55 152.21 255.29 151.86 252.5C151.777 251.823 151.64 251.155 151.45 250.5C147.87 250.95 141.32 253.24 139.56 253.24C137.64 253.24 135.71 250.35 132.82 247.13C129.93 243.91 125.43 235.57 124.82 225.29C124.21 215.01 128.67 205.37 128.67 200.55C128.67 195.73 122.89 206.98 124.17 202.16C125.45 197.34 130.6 190.27 134.45 188.34C138.3 186.41 142.81 185.13 144.45 181.92C146.09 178.71 138.67 180.92 141.24 178.38C143.81 175.84 160.52 172.54 165.98 169.38C171.44 166.22 152.1 169.5 150.17 166.93Z" fill="white"/>
</g>
<path d="M167.93 132.31C167.93 132.31 156.54 130.63 147.93 137.91C139.32 145.19 140.29 153 140.29 153C140.29 153 131.88 156.73 130.2 161C129.218 163.523 128.547 166.155 128.2 168.84C128.2 168.84 123.72 173.14 119.98 177.43C116.24 181.72 113.07 182.43 112.32 188.08C111.57 193.73 111.95 207.5 116.06 221.13C120.17 234.76 122.97 240.74 124.06 243.13C125.15 245.52 134.89 257.88 136.57 258.26C138.25 258.64 139.93 259 141.24 258.26C142.55 257.52 152.24 255.26 151.89 252.47C151.818 250.98 151.294 249.547 150.39 248.36L150.02 247.8C150.02 247.8 151.7 244.62 150.58 243.13C149.46 241.64 148.52 241.45 146.47 239.58C144.42 237.71 143.3 237.15 140.87 237.15C138.44 237.15 135.87 237.34 135.87 237.34C135.87 237.34 132.13 235.84 132.13 225.01C132.13 214.18 135.49 204.84 137.13 200.01C138.12 197.248 138.687 194.352 138.81 191.42C138.81 191.42 140.12 193.29 149.27 188.99C158.42 184.69 160.48 172.56 160.48 172.56L147 174.7C153.599 174.121 160.113 172.807 166.42 170.78C176.88 167.42 181.36 166.86 185.42 150.98" stroke="#263238" stroke-miterlimit="10" stroke-linecap="round"/>
<path d="M138.79 191.51L137.72 182.94" stroke="#263238" stroke-linecap="round" stroke-linejoin="round"/>
<path d="M191.639 125.21C197.059 123.53 198.369 116.81 201.539 109.71C204.045 104.439 206.87 99.3265 209.999 94.4C204.533 94.4751 199.097 93.5883 193.939 91.78C185.529 88.78 175.629 90.85 173.769 92.9C171.909 94.95 172.089 92.34 172.459 98.69C172.829 105.04 175.259 114.19 177.459 117.37C179.659 120.55 181.009 122.37 181.009 122.37" fill="white"/>
<mask id="mask6_7215_197" style="mask-type:luminance" maskUnits="userSpaceOnUse" x="172" y="90" width="38" height="36">
<path d="M191.639 125.21C197.059 123.53 198.369 116.81 201.539 109.71C204.045 104.439 206.87 99.3265 209.999 94.4C204.533 94.4751 199.097 93.5883 193.939 91.78C185.529 88.78 175.629 90.85 173.769 92.9C171.909 94.95 172.089 92.34 172.459 98.69C172.829 105.04 175.259 114.19 177.459 117.37C179.659 120.55 181.009 122.37 181.009 122.37" fill="white"/>
</mask>
<g mask="url(#mask6_7215_197)">
<path d="M207.599 94.38C202.926 94.1926 198.306 93.3165 193.889 91.78C185.479 88.78 175.579 90.85 173.719 92.9C171.859 94.95 172.039 92.34 172.409 98.69C172.779 105.04 175.209 114.19 177.409 117.37L178.209 118.49L208.059 94.61L207.599 94.38Z" fill="#DE474A"/>
<path opacity="0.5" d="M207.599 94.38C202.926 94.1926 198.306 93.3165 193.889 91.78C185.479 88.78 175.579 90.85 173.719 92.9C171.859 94.95 172.039 92.34 172.409 98.69C172.779 105.04 175.209 114.19 177.409 117.37L178.209 118.49L208.059 94.61L207.599 94.38Z" fill="white"/>
</g>
<path d="M191.639 125.21C197.059 123.53 198.369 116.81 201.539 109.71C204.045 104.439 206.87 99.3265 209.999 94.4C204.533 94.4751 199.097 93.5883 193.939 91.78C185.529 88.78 175.629 90.85 173.769 92.9C171.909 94.95 172.089 92.34 172.459 98.69C172.829 105.04 175.259 114.19 177.459 117.37C179.659 120.55 181.009 122.37 181.009 122.37" stroke="#263238" stroke-miterlimit="10" stroke-linecap="round"/>
<path d="M190.339 114.19C193.654 114.216 196.959 113.809 200.169 112.98C200.599 111.91 201.049 110.82 201.539 109.71C204.045 104.439 206.87 99.3265 209.999 94.4C204.533 94.4751 199.097 93.5883 193.939 91.78C185.529 88.78 175.629 90.85 173.769 92.9C171.909 94.95 172.089 92.34 172.459 98.69C172.733 102.34 173.366 105.954 174.349 109.48C177.369 112 182.319 114.11 190.339 114.19Z" stroke="#263238" stroke-miterlimit="10" stroke-linecap="round"/>
<path d="M192.1 122.25L187.6 102.44" stroke="#263238" stroke-linecap="round" stroke-linejoin="round"/>
<path d="M197.31 57.16C197.848 54.9513 198.242 52.7099 198.49 50.45C198.87 46.9 190.34 40.61 181.56 41.36C172.78 42.11 175.96 50.7 174.84 53.5C173.72 56.3 165.31 53.31 163.07 58.35C160.83 63.39 164.75 64.89 164.75 66.35C164.75 67.81 157.84 71.77 158.75 80.55C159.66 89.33 174.81 97.91 178.17 98.66C181.53 99.41 185.64 96.23 185.64 93.66C185.64 91.09 191.24 90.11 192.74 87.66C194.24 85.21 190.31 76.83 190.49 74.96C190.67 73.09 196.49 65.63 194.6 63.76C192.71 61.89 197.31 57.16 197.31 57.16Z" fill="#263238" stroke="#263238" stroke-miterlimit="10" stroke-linecap="round"/>
<path d="M188.37 59.26C188.37 59.26 191.27 58.94 191.27 52.51C191.27 46.08 181.95 47.69 180.66 50.26C179.37 52.83 180.34 57.6501 177.13 58.9401C173.92 60.2301 168.77 60.22 168.77 62.79V66.3301" stroke="white" stroke-width="0.75" stroke-linecap="round" stroke-linejoin="round"/>
<path d="M180 64.4C180 64.4 168.11 63.76 162 74.68" stroke="white" stroke-width="0.75" stroke-linecap="round" stroke-linejoin="round"/>
<path d="M181.63 67.29C181.63 67.29 173.63 67.6101 169.42 73.0701" stroke="white" stroke-width="0.75" stroke-linecap="round" stroke-linejoin="round"/>
<path d="M195.33 58.34C195.86 57.65 202.77 64.83 203.04 65.64C203.313 66.627 203.53 67.6286 203.69 68.64C203.721 68.8291 203.791 69.0099 203.894 69.1714C203.997 69.333 204.132 69.472 204.29 69.5801L209.12 72.89C209.432 73.1082 209.645 73.4401 209.714 73.8143C209.784 74.1884 209.703 74.5748 209.49 74.89L207.81 77.31C207.664 77.5158 207.576 77.7571 207.554 78.0086C207.533 78.2602 207.58 78.5128 207.69 78.7401C209.04 81.6401 213.82 91.9401 213.5 92.7401C213.124 93.7223 212.387 94.5236 211.44 94.98C210.51 95.35 193.33 101.14 191.27 101.33C189.69 101.47 185.89 94.9801 184.21 91.9601C184.012 91.6273 183.691 91.3867 183.316 91.291C182.94 91.1954 182.543 91.2526 182.21 91.45C181.49 91.8658 180.678 92.0954 179.846 92.1181C179.015 92.1408 178.192 91.9559 177.45 91.5801C173.71 89.8901 169.45 86.72 171.28 83.17C173.11 79.62 176.14 79.44 177.45 80.37C178.32 80.99 179.86 82.2901 180.79 83.0701C181.014 83.2648 181.294 83.3849 181.589 83.4135C181.885 83.4422 182.182 83.3781 182.44 83.23L183.23 82.7701C183.418 82.6674 183.581 82.5237 183.707 82.3495C183.832 82.1753 183.917 81.9751 183.954 81.7638C183.991 81.5525 183.981 81.3355 183.923 81.1289C183.865 80.9222 183.762 80.7312 183.62 80.5701C183.321 80.1902 183.084 79.7648 182.92 79.31C182.92 79.31 188.33 74.64 186.47 72.03C184.61 69.42 179.56 65.4901 180.12 63.4401C180.68 61.3901 188.12 58.7701 191.32 58.7701C192.51 58.7301 194.94 58.86 195.33 58.34Z" fill="white"/>
<mask id="mask7_7215_197" style="mask-type:luminance" maskUnits="userSpaceOnUse" x="170" y="58" width="44" height="44">
<path d="M195.33 58.34C195.86 57.65 202.77 64.83 203.04 65.64C203.313 66.627 203.53 67.6286 203.69 68.64C203.721 68.8291 203.791 69.0099 203.894 69.1714C203.997 69.333 204.132 69.472 204.29 69.5801L209.12 72.89C209.432 73.1082 209.645 73.4401 209.714 73.8143C209.784 74.1884 209.703 74.5748 209.49 74.89L207.81 77.31C207.664 77.5158 207.576 77.7571 207.554 78.0086C207.533 78.2602 207.58 78.5128 207.69 78.7401C209.04 81.6401 213.82 91.9401 213.5 92.7401C213.124 93.7223 212.387 94.5236 211.44 94.98C210.51 95.35 193.33 101.14 191.27 101.33C189.69 101.47 185.89 94.9801 184.21 91.9601C184.012 91.6273 183.691 91.3867 183.316 91.291C182.94 91.1954 182.543 91.2526 182.21 91.45C181.49 91.8658 180.678 92.0954 179.846 92.1181C179.015 92.1408 178.192 91.9559 177.45 91.5801C173.71 89.8901 169.45 86.72 171.28 83.17C173.11 79.62 176.14 79.44 177.45 80.37C178.32 80.99 179.86 82.2901 180.79 83.0701C181.014 83.2648 181.294 83.3849 181.589 83.4135C181.885 83.4422 182.182 83.3781 182.44 83.23L183.23 82.7701C183.418 82.6674 183.581 82.5237 183.707 82.3495C183.832 82.1753 183.917 81.9751 183.954 81.7638C183.991 81.5525 183.981 81.3355 183.923 81.1289C183.865 80.9222 183.762 80.7312 183.62 80.5701C183.321 80.1902 183.084 79.7648 182.92 79.31C182.92 79.31 188.33 74.64 186.47 72.03C184.61 69.42 179.56 65.4901 180.12 63.4401C180.68 61.3901 188.12 58.7701 191.32 58.7701C192.51 58.7301 194.94 58.86 195.33 58.34Z" fill="white"/>
</mask>
<g mask="url(#mask7_7215_197)">
<path d="M186.42 72.0001C188.28 74.6101 182.87 79.2801 182.87 79.2801C183.034 79.7348 183.271 80.1602 183.57 80.54C183.712 80.7012 183.815 80.8922 183.873 81.0989C183.931 81.3055 183.941 81.5225 183.904 81.7338C183.866 81.9451 183.782 82.1453 183.657 82.3195C183.531 82.4937 183.368 82.6374 183.18 82.7401L182.39 83.2001C182.132 83.3481 181.835 83.4122 181.539 83.3835C181.244 83.3549 180.964 83.2348 180.74 83.04C179.81 82.26 178.27 80.96 177.4 80.34C176.09 79.41 173.1 79.5901 171.23 83.1401C169.36 86.6901 173.66 89.8601 177.4 91.5501C178.141 91.9259 178.965 92.1108 179.796 92.0881C180.627 92.0654 181.44 91.8358 182.16 91.4201C182.493 91.2226 182.89 91.1654 183.265 91.2611C183.64 91.3567 183.962 91.5973 184.16 91.93C185.84 94.93 189.64 101.44 191.22 101.3C193.28 101.11 210.46 95.3001 211.39 94.9501C212.337 94.4936 213.074 93.6923 213.45 92.7101C213.45 92.7101 206.03 96.2201 201.99 92.5801C197.95 88.9401 192.69 83.69 191.07 81.26C189.45 78.83 192.82 73.4601 189.45 68.3201C186.08 63.1801 180.02 63.3901 180.02 63.3901C179.51 65.4501 184.55 69.3701 186.42 72.0001Z" fill="#DE474A"/>
<path opacity="0.5" d="M186.42 72.0001C188.28 74.6101 182.87 79.2801 182.87 79.2801C183.034 79.7348 183.271 80.1602 183.57 80.54C183.712 80.7012 183.815 80.8922 183.873 81.0989C183.931 81.3055 183.941 81.5225 183.904 81.7338C183.866 81.9451 183.782 82.1453 183.657 82.3195C183.531 82.4937 183.368 82.6374 183.18 82.7401L182.39 83.2001C182.132 83.3481 181.835 83.4122 181.539 83.3835C181.244 83.3549 180.964 83.2348 180.74 83.04C179.81 82.26 178.27 80.96 177.4 80.34C176.09 79.41 173.1 79.5901 171.23 83.1401C169.36 86.6901 173.66 89.8601 177.4 91.5501C178.141 91.9259 178.965 92.1108 179.796 92.0881C180.627 92.0654 181.44 91.8358 182.16 91.4201C182.493 91.2226 182.89 91.1654 183.265 91.2611C183.64 91.3567 183.962 91.5973 184.16 91.93C185.84 94.93 189.64 101.44 191.22 101.3C193.28 101.11 210.46 95.3001 211.39 94.9501C212.337 94.4936 213.074 93.6923 213.45 92.7101C213.45 92.7101 206.03 96.2201 201.99 92.5801C197.95 88.9401 192.69 83.69 191.07 81.26C189.45 78.83 192.82 73.4601 189.45 68.3201C186.08 63.1801 180.02 63.3901 180.02 63.3901C179.51 65.4501 184.55 69.3701 186.42 72.0001Z" fill="white"/>
</g>
<path d="M195.33 58.34C195.86 57.65 202.77 64.83 203.04 65.64C203.313 66.627 203.53 67.6286 203.69 68.64C203.721 68.8291 203.791 69.0099 203.894 69.1714C203.997 69.333 204.132 69.472 204.29 69.5801L209.12 72.89C209.432 73.1082 209.645 73.4401 209.714 73.8143C209.784 74.1884 209.703 74.5748 209.49 74.89L207.81 77.31C207.664 77.5158 207.576 77.7571 207.554 78.0086C207.533 78.2602 207.58 78.5128 207.69 78.7401C209.04 81.6401 213.82 91.9401 213.5 92.7401C213.124 93.7223 212.387 94.5236 211.44 94.98C210.51 95.35 193.33 101.14 191.27 101.33C189.69 101.47 185.89 94.9801 184.21 91.9601C184.012 91.6273 183.691 91.3867 183.316 91.291C182.94 91.1954 182.543 91.2526 182.21 91.45C181.49 91.8658 180.678 92.0954 179.846 92.1181C179.015 92.1408 178.192 91.9559 177.45 91.5801C173.71 89.8901 169.45 86.72 171.28 83.17C173.11 79.62 176.14 79.44 177.45 80.37C178.32 80.99 179.86 82.2901 180.79 83.0701C181.014 83.2648 181.294 83.3849 181.589 83.4135C181.885 83.4422 182.182 83.3781 182.44 83.23L183.23 82.7701C183.418 82.6674 183.581 82.5237 183.707 82.3495C183.832 82.1753 183.917 81.9751 183.954 81.7638C183.991 81.5525 183.981 81.3355 183.923 81.1289C183.865 80.9222 183.762 80.7312 183.62 80.5701C183.321 80.1902 183.084 79.7648 182.92 79.31C182.92 79.31 188.33 74.64 186.47 72.03C184.61 69.42 179.56 65.4901 180.12 63.4401C180.68 61.3901 188.12 58.7701 191.32 58.7701C192.51 58.7301 194.94 58.86 195.33 58.34Z" stroke="#263238" stroke-miterlimit="10" stroke-linecap="round"/>
<path d="M200.569 68.34C200.569 68.34 196.569 68.34 195.439 68.91C194.309 69.48 192.869 73.47 192.869 73.47L196.579 71.19L200.849 70.34L201.989 67.21L200.569 68.34Z" fill="#263238"/>
<path d="M200.85 72.33L197.43 74.04H200.85" fill="white"/>
<path d="M200.85 72.33L197.43 74.04H200.85" stroke="#263238" stroke-miterlimit="10" stroke-linecap="round"/>
<path d="M197.249 255.38C190.78 257.37 184.573 260.126 178.759 263.59C169.999 269 155.409 277.6 148.879 278C142.349 278.4 140.289 276.32 136.369 274.83C132.449 273.34 130.369 278.19 130.369 280.99C130.369 283.79 130.369 285.1 128.499 287.72C126.629 290.34 121.799 300 121.799 300C121.799 300 119.179 310.46 121.799 310.83C124.419 311.2 126.089 307.66 131.509 303.18C136.929 298.7 145.509 288.98 153.169 288.24C160.829 287.5 195.009 283.94 209.169 277.24C223.329 270.54 222.429 272.38 226.539 269.24C230.649 266.1 229.149 260.09 227.099 255.98C226.008 253.657 224.413 251.607 222.429 249.98" fill="white"/>
<mask id="mask8_7215_197" style="mask-type:luminance" maskUnits="userSpaceOnUse" x="120" y="249" width="110" height="62">
<path d="M197.249 255.38C190.78 257.37 184.573 260.126 178.759 263.59C169.999 269 155.409 277.6 148.879 278C142.349 278.4 140.289 276.32 136.369 274.83C132.449 273.34 130.369 278.19 130.369 280.99C130.369 283.79 130.369 285.1 128.499 287.72C126.629 290.34 121.799 300 121.799 300C121.799 300 119.179 310.46 121.799 310.83C124.419 311.2 126.089 307.66 131.509 303.18C136.929 298.7 145.509 288.98 153.169 288.24C160.829 287.5 195.009 283.94 209.169 277.24C223.329 270.54 222.429 272.38 226.539 269.24C230.649 266.1 229.149 260.09 227.099 255.98C226.008 253.657 224.413 251.607 222.429 249.98" fill="white"/>
</mask>
<g mask="url(#mask8_7215_197)">
<path d="M217.609 273.46C215.929 273.16 214.609 272.72 214.609 272.1C214.609 270.48 219.459 270.48 221.889 267.25C224.319 264.02 221.479 260.78 218.249 257.14C217.009 255.75 215.479 253.76 213.829 251.82L197.289 255.38C190.82 257.37 184.613 260.126 178.799 263.59C169.999 269 155.409 277.6 148.879 278C142.349 278.4 140.289 276.32 136.369 274.83C132.449 273.34 130.369 278.19 130.369 280.99C130.369 283.79 130.369 285.1 128.499 287.72C126.629 290.34 121.799 300 121.799 300C121.799 300 119.179 310.46 121.799 310.83C124.419 311.2 126.089 307.66 131.509 303.18C136.929 298.7 145.509 288.98 153.169 288.24C160.829 287.5 195.009 283.94 209.169 277.24C212.929 275.46 215.599 274.29 217.609 273.46Z" fill="#DE474A"/>
<path opacity="0.5" d="M217.609 273.46C215.929 273.16 214.609 272.72 214.609 272.1C214.609 270.48 219.459 270.48 221.889 267.25C224.319 264.02 221.479 260.78 218.249 257.14C217.009 255.75 215.479 253.76 213.829 251.82L197.289 255.38C190.82 257.37 184.613 260.126 178.799 263.59C169.999 269 155.409 277.6 148.879 278C142.349 278.4 140.289 276.32 136.369 274.83C132.449 273.34 130.369 278.19 130.369 280.99C130.369 283.79 130.369 285.1 128.499 287.72C126.629 290.34 121.799 300 121.799 300C121.799 300 119.179 310.46 121.799 310.83C124.419 311.2 126.089 307.66 131.509 303.18C136.929 298.7 145.509 288.98 153.169 288.24C160.829 287.5 195.009 283.94 209.169 277.24C212.929 275.46 215.599 274.29 217.609 273.46Z" fill="white"/>
</g>
<path d="M197.249 255.38C190.78 257.37 184.573 260.126 178.759 263.59C169.999 269 155.409 277.6 148.879 278C142.349 278.4 140.289 276.32 136.369 274.83C132.449 273.34 130.369 278.19 130.369 280.99C130.369 283.79 130.369 285.1 128.499 287.72C126.629 290.34 121.799 300 121.799 300C121.799 300 119.179 310.46 121.799 310.83C124.419 311.2 126.089 307.66 131.509 303.18C136.929 298.7 145.509 288.98 153.169 288.24C160.829 287.5 195.009 283.94 209.169 277.24C223.329 270.54 222.429 272.38 226.539 269.24C230.649 266.1 229.149 260.09 227.099 255.98C226.008 253.657 224.413 251.607 222.429 249.98" stroke="#263238" stroke-miterlimit="10" stroke-linecap="round"/>
<path d="M227.91 258C227.91 258 223.46 240.61 193.7 215.46C173.7 198.54 164.75 194.92 153.36 205C141.97 215.08 144.21 221.63 148.36 228C152.51 234.37 169.27 246.49 183.09 252.66C196.91 258.83 210.92 267.41 218.76 266.66" fill="white"/>
<mask id="mask9_7215_197" style="mask-type:luminance" maskUnits="userSpaceOnUse" x="144" y="199" width="84" height="68">
<path d="M227.91 258C227.91 258 223.46 240.61 193.7 215.46C173.7 198.54 164.75 194.92 153.36 205C141.97 215.08 144.21 221.63 148.36 228C152.51 234.37 169.27 246.49 183.09 252.66C196.91 258.83 210.92 267.41 218.76 266.66" fill="white"/>
</mask>
<g mask="url(#mask9_7215_197)">
<path d="M205.68 245.41C201.63 245.01 208.91 253.1 200.42 251.07C191.93 249.04 162.42 223.99 156.35 215.9C151.35 209.24 155.68 203.69 157.35 201.9C155.935 202.786 154.597 203.79 153.35 204.9C141.96 214.99 144.2 221.52 148.35 227.9C152.5 234.28 169.26 246.39 183.08 252.56C196.9 258.73 210.91 267.31 218.75 266.56L222.48 263.06C221.81 261.16 220.09 259.21 218.24 257.12C215 253.5 209.72 245.82 205.68 245.41Z" fill="#DE474A"/>
<path opacity="0.5" d="M205.68 245.41C201.63 245.01 208.91 253.1 200.42 251.07C191.93 249.04 162.42 223.99 156.35 215.9C151.35 209.24 155.68 203.69 157.35 201.9C155.935 202.786 154.597 203.79 153.35 204.9C141.96 214.99 144.2 221.52 148.35 227.9C152.5 234.28 169.26 246.39 183.08 252.56C196.9 258.73 210.91 267.31 218.75 266.56L222.48 263.06C221.81 261.16 220.09 259.21 218.24 257.12C215 253.5 209.72 245.82 205.68 245.41Z" fill="white"/>
</g>
<path d="M227.91 258C227.91 258 223.46 240.61 193.7 215.46C173.7 198.54 164.75 194.92 153.36 205C141.97 215.08 144.21 221.63 148.36 228C152.51 234.37 169.27 246.49 183.09 252.66C196.91 258.83 210.92 267.41 218.76 266.66" stroke="#263238" stroke-miterlimit="10" stroke-linecap="round"/>
<path d="M182.119 274.43C180.229 270.26 180.689 265.57 181.599 261.95C180.649 262.47 179.699 263.01 178.759 263.59C169.999 269 155.409 277.6 148.879 278C142.349 278.4 140.289 276.32 136.369 274.83C132.449 273.34 130.369 278.19 130.369 280.99C130.369 283.79 130.369 285.1 128.499 287.72C126.629 290.34 121.799 300 121.799 300C121.799 300 119.179 310.46 121.799 310.83C124.419 311.2 126.089 307.66 131.509 303.18C136.929 298.7 145.509 288.98 153.169 288.24C165.983 287.023 178.726 285.151 191.349 282.63C187.31 281.222 183.992 278.275 182.119 274.43Z" fill="#DE474A"/>
<mask id="mask10_7215_197" style="mask-type:luminance" maskUnits="userSpaceOnUse" x="120" y="261" width="72" height="50">
<path d="M182.119 274.43C180.229 270.26 180.689 265.57 181.599 261.95C180.649 262.47 179.699 263.01 178.759 263.59C169.999 269 155.409 277.6 148.879 278C142.349 278.4 140.289 276.32 136.369 274.83C132.449 273.34 130.369 278.19 130.369 280.99C130.369 283.79 130.369 285.1 128.499 287.72C126.629 290.34 121.799 300 121.799 300C121.799 300 119.179 310.46 121.799 310.83C124.419 311.2 126.089 307.66 131.509 303.18C136.929 298.7 145.509 288.98 153.169 288.24C165.983 287.023 178.726 285.151 191.349 282.63C187.31 281.222 183.992 278.275 182.119 274.43Z" fill="white"/>
</mask>
<g mask="url(#mask10_7215_197)">
<path opacity="0.2" d="M182.119 274.43C180.229 270.26 180.689 265.57 181.599 261.95C180.649 262.47 179.699 263.01 178.759 263.59C169.999 269 155.409 277.6 148.879 278C142.349 278.4 140.289 276.32 136.369 274.83C132.449 273.34 130.369 278.19 130.369 280.99C130.369 283.79 130.369 285.1 128.499 287.72C126.629 290.34 121.799 300 121.799 300C121.799 300 119.179 310.46 121.799 310.83C124.419 311.2 126.089 307.66 131.509 303.18C136.929 298.7 145.509 288.98 153.169 288.24C165.983 287.023 178.726 285.151 191.349 282.63C187.31 281.222 183.992 278.275 182.119 274.43Z" fill="black"/>
</g>
<path d="M182.119 274.43C180.229 270.26 180.689 265.57 181.599 261.95C180.649 262.47 179.699 263.01 178.759 263.59C169.999 269 155.409 277.6 148.879 278C142.349 278.4 140.289 276.32 136.369 274.83C132.449 273.34 130.369 278.19 130.369 280.99C130.369 283.79 130.369 285.1 128.499 287.72C126.629 290.34 121.799 300 121.799 300C121.799 300 119.179 310.46 121.799 310.83C124.419 311.2 126.089 307.66 131.509 303.18C136.929 298.7 145.509 288.98 153.169 288.24C165.983 287.023 178.726 285.151 191.349 282.63C187.31 281.222 183.992 278.275 182.119 274.43Z" stroke="#263238" stroke-linecap="round" stroke-linejoin="round"/>
<path d="M149.71 225.43C149.71 225.43 190.56 251.57 202.54 255.93C214.52 260.29 211.8 252.11 211.8 252.11" stroke="#263238" stroke-linecap="round" stroke-linejoin="round"/>
<path d="M186.199 276.62C186.199 276.62 197.639 277.71 205.259 270.62" stroke="#263238" stroke-linecap="round" stroke-linejoin="round"/>
<path d="M183.689 130.24C183.689 130.24 169.209 120.77 152.449 122.77C135.689 124.77 115.789 141.91 102.889 156.57C89.9888 171.23 32.6388 251.19 32.6388 251.19L30.8588 238.12C30.0256 231.963 31.6533 225.725 35.3888 220.76L44.4988 208.63C44.4988 208.63 45.4088 193.71 53.4988 186.05C58.8705 181.026 64.7066 176.522 70.9288 172.6C73.0188 171.16 93.9288 150.21 108.679 135.23C123.429 120.25 141.329 109.52 157.549 114.06C173.769 118.6 180.269 122.06 184.049 125.4C187.829 128.74 187.959 128.4 187.959 128.4L183.689 130.24Z" fill="#DE474A" stroke="#263238" stroke-miterlimit="10" stroke-linecap="round"/>
<path d="M85.3887 165.78L88.7587 161.99" stroke="#263238" stroke-miterlimit="10" stroke-linecap="round"/>
<path d="M44.5 208.63L84 167.08" stroke="#263238" stroke-miterlimit="10" stroke-linecap="round"/>
<path d="M140.549 120.55C139.489 120.97 138.429 121.44 137.359 121.99" stroke="#263238" stroke-miterlimit="10" stroke-linecap="round"/>
<path d="M185.51 129.83C185.51 129.83 165.08 113.4 143.71 119.49" stroke="#263238" stroke-miterlimit="10" stroke-linecap="round"/>
<path d="M149.999 247.91C149.999 247.91 151.679 244.73 150.559 243.24C149.439 241.75 148.499 241.56 146.449 239.69C144.399 237.82 143.279 237.26 140.849 237.26C138.419 237.26 135.849 237.45 135.849 237.45C135.849 237.45 132.109 235.95 132.109 225.12C132.207 218.434 133.306 211.801 135.369 205.44C132.095 207.377 128.428 208.553 124.639 208.88C122.365 209.127 120.067 208.793 117.958 207.91C115.848 207.027 113.998 205.623 112.579 203.83C113.186 209.712 114.331 215.527 115.999 221.2C120.109 234.83 122.909 240.81 123.999 243.2C125.089 245.59 134.829 257.95 136.509 258.33C138.189 258.71 139.869 259.07 141.179 258.33C142.489 257.59 152.179 255.33 151.829 252.54C151.756 251.05 151.233 249.617 150.329 248.43L149.999 247.91Z" fill="#DE474A"/>
<mask id="mask11_7215_197" style="mask-type:luminance" maskUnits="userSpaceOnUse" x="112" y="203" width="40" height="56">
<path d="M149.999 247.91C149.999 247.91 151.679 244.73 150.559 243.24C149.439 241.75 148.499 241.56 146.449 239.69C144.399 237.82 143.279 237.26 140.849 237.26C138.419 237.26 135.849 237.45 135.849 237.45C135.849 237.45 132.109 235.95 132.109 225.12C132.207 218.434 133.306 211.801 135.369 205.44C132.095 207.377 128.428 208.553 124.639 208.88C122.365 209.127 120.067 208.793 117.958 207.91C115.848 207.027 113.998 205.623 112.579 203.83C113.186 209.712 114.331 215.527 115.999 221.2C120.109 234.83 122.909 240.81 123.999 243.2C125.089 245.59 134.829 257.95 136.509 258.33C138.189 258.71 139.869 259.07 141.179 258.33C142.489 257.59 152.179 255.33 151.829 252.54C151.756 251.05 151.233 249.617 150.329 248.43L149.999 247.91Z" fill="white"/>
</mask>
<g mask="url(#mask11_7215_197)">
<path opacity="0.2" d="M151.868 252.58C151.868 252.28 151.778 252.01 151.728 251.76C151.728 251.68 151.728 251.6 151.728 251.52C151.728 251.44 151.648 251.16 151.608 251C151.568 250.84 151.528 250.73 151.498 250.61C147.918 251.06 141.368 253.35 139.608 253.35C137.688 253.35 135.758 250.46 132.868 247.24C129.978 244.02 125.478 235.68 124.868 225.4C124.478 219.24 125.938 213.32 127.168 208.51C126.368 208.67 125.548 208.79 124.668 208.88C122.395 209.127 120.096 208.793 117.987 207.91C115.878 207.027 114.028 205.623 112.608 203.83C112.608 204.09 112.668 204.36 112.698 204.62C112.748 205.08 112.808 205.54 112.868 206.02C112.868 206.33 112.958 206.66 112.998 207.02C113.038 207.38 113.128 207.88 113.188 208.32C113.248 208.76 113.298 208.99 113.348 209.32C113.398 209.65 113.498 210.2 113.578 210.64L113.758 211.64L113.998 213L114.208 214C114.308 214.47 114.418 214.95 114.528 215.43C114.598 215.75 114.668 216.07 114.748 216.38C114.878 216.92 115.018 217.46 115.158 217.99C115.218 218.26 115.288 218.53 115.358 218.79C115.578 219.6 115.808 220.41 116.048 221.21C120.158 234.84 122.958 240.82 124.048 243.21C124.139 243.403 124.243 243.59 124.358 243.77C124.558 244.11 124.818 244.52 125.138 244.99C125.668 245.77 126.348 246.7 127.138 247.72L127.608 248.33C130.928 252.7 135.488 258.09 136.608 258.33C138.288 258.7 139.968 259.07 141.278 258.33C141.764 258.101 142.265 257.908 142.778 257.75L143.548 257.5C146.748 256.46 152.148 254.68 151.868 252.58Z" fill="black"/>
<path d="M148.929 244.58L146.579 246.53C146.579 246.53 148.319 246.41 150.369 248.47" stroke="#263238" stroke-linecap="round" stroke-linejoin="round"/>
</g>
<path d="M149.999 247.91C149.999 247.91 151.679 244.73 150.559 243.24C149.439 241.75 148.499 241.56 146.449 239.69C144.399 237.82 143.279 237.26 140.849 237.26C138.419 237.26 135.849 237.45 135.849 237.45C135.849 237.45 132.109 235.95 132.109 225.12C132.207 218.434 133.306 211.801 135.369 205.44C132.095 207.377 128.428 208.553 124.639 208.88C122.365 209.127 120.067 208.793 117.958 207.91C115.848 207.027 113.998 205.623 112.579 203.83C113.186 209.712 114.331 215.527 115.999 221.2C120.109 234.83 122.909 240.81 123.999 243.2C125.089 245.59 134.829 257.95 136.509 258.33C138.189 258.71 139.869 259.07 141.179 258.33C142.489 257.59 152.179 255.33 151.829 252.54C151.756 251.05 151.233 249.617 150.329 248.43L149.999 247.91Z" stroke="#263238" stroke-linecap="round" stroke-linejoin="round"/>
<path d="M295.84 52.96L263.64 83.19" stroke="#263238" stroke-linecap="round" stroke-linejoin="round"/>
<path d="M260.619 86.02L255.399 90.92" stroke="#263238" stroke-linecap="round" stroke-linejoin="round"/>
<path d="M62.5497 244.48L56.9297 249.76" stroke="#263238" stroke-linecap="round" stroke-linejoin="round"/>
<path d="M104.13 205.46L67.0693 240.24" stroke="#263238" stroke-linecap="round" stroke-linejoin="round"/>
<path d="M138.999 313.68L135.279 317.17" stroke="#263238" stroke-linecap="round" stroke-linejoin="round"/>
<path d="M162.22 291.88L142.76 310.14" stroke="#263238" stroke-linecap="round" stroke-linejoin="round"/>
<path d="M4.76929 261.52L0.279297 265.74" stroke="#263238" stroke-linecap="round" stroke-linejoin="round"/>
<path d="M47.489 221.44L10.7891 255.88" stroke="#263238" stroke-linecap="round" stroke-linejoin="round"/>
<path d="M112.659 118.12L107.029 123.4" stroke="#263238" stroke-linecap="round" stroke-linejoin="round"/>
<path d="M154.239 79.1L117.539 113.55" stroke="#263238" stroke-linecap="round" stroke-linejoin="round"/>
<path d="M287.859 68.21L240.649 112.51" stroke="#263238" stroke-linecap="round" stroke-linejoin="round"/>
<path d="M357.21 173.85C350.4 170.14 347.31 173.23 344.84 170.14C342.37 167.05 351.64 159 333.08 151C333.08 151 331.84 133.67 306.47 133C281.1 132.33 287.91 150.33 281.1 154.66C274.29 158.99 272.44 152.18 265.63 156.52C258.82 160.86 261.92 169.52 256.35 170.75C250.78 171.98 243.35 165.18 236.55 169.51C229.75 173.84 229.74 177.51 226.65 177.51C223.56 177.51 217.37 175.04 213.65 177.51C209.93 179.98 205.6 183.08 205.6 183.08H362.16C362.16 183.08 364 177.56 357.21 173.85Z" fill="white"/>
<path d="M130.4 73.71C127.77 72.28 126.58 73.47 125.62 72.28C124.66 71.09 128.25 67.98 121.09 64.88C121.09 64.88 120.61 58.19 110.82 57.95C101.03 57.71 103.66 64.64 101.03 66.31C98.3996 67.98 97.6896 65.31 95.0296 67.02C92.3696 68.73 93.5997 72.02 91.4497 72.52C89.2997 73.02 86.4496 70.37 83.8096 72.04C81.1696 73.71 81.1796 75.14 79.9896 75.14C78.7996 75.14 76.4096 74.19 74.9896 75.14C73.5696 76.09 71.8896 77.29 71.8896 77.29H132.3C132.3 77.29 133 75.14 130.4 73.71Z" fill="white"/>
</g>
</g>
<defs>
<clipPath id="clip0_7215_197">
<rect width="375" height="334" fill="white"/>
</clipPath>
</defs>
</svg>
