<svg width="375" height="334" viewBox="0 0 375 334" fill="none" xmlns="http://www.w3.org/2000/svg">
<g clip-path="url(#clip0_7207_59)">
<path d="M367.47 118.33C350.27 66.69 305.28 23.25 251.07 10.4C189.81 -4.12999 123.98 19.54 73.83 54.4C55.53 67.12 38.46 82.22 25.22 100.24C-20 161.86 56 194.58 54.09 225.37C52.18 256.16 3.09001 262.89 40.61 305.23C78.13 347.57 196.49 337.94 288.86 288.87C319.36 272.67 348.64 250.14 363.24 217.95C378.11 185.12 378.07 150.17 367.47 118.33Z" fill="#809CFF"/>
<path opacity="0.7" d="M367.47 118.33C350.27 66.69 305.28 23.25 251.07 10.4C189.81 -4.12999 123.98 19.54 73.83 54.4C55.53 67.12 38.46 82.22 25.22 100.24C-20 161.86 56 194.58 54.09 225.37C52.18 256.16 3.09001 262.89 40.61 305.23C78.13 347.57 196.49 337.94 288.86 288.87C319.36 272.67 348.64 250.14 363.24 217.95C378.11 185.12 378.07 150.17 367.47 118.33Z" fill="white"/>
<path d="M118.06 281.34C107.79 288.06 96.2097 305.99 90.4197 313.27C84.6297 320.55 84.6397 331.01 82.2097 333.81C79.7797 336.61 71.3797 328.02 73.2097 321.67C75.0397 315.32 78.2097 314.02 77.5097 311.03C76.8097 308.04 75.0797 306.17 76.9497 302.25C78.8197 298.33 84.2297 302.07 89.6497 298.33C95.0697 294.59 100.48 278.53 107.2 261.73C113.92 244.93 128.12 245.29 129.8 242.68C131.48 240.07 141 206.07 150.72 207.76C160.44 209.45 178 226.62 172.41 236C166.82 245.38 160.27 245.16 152.41 250.57C144.55 255.98 145.5 257.11 140.27 262.71C135.04 268.31 131.27 269.25 128.5 269.99C128.5 269.99 124.58 274.29 122.15 277.46C119.72 280.63 118.06 281.34 118.06 281.34Z" fill="white"/>
<mask id="mask0_7207_59" style="mask-type:luminance" maskUnits="userSpaceOnUse" x="72" y="207" width="102" height="128">
<path d="M118.06 281.34C107.79 288.06 96.2097 305.99 90.4197 313.27C84.6297 320.55 84.6397 331.01 82.2097 333.81C79.7797 336.61 71.3797 328.02 73.2097 321.67C75.0397 315.32 78.2097 314.02 77.5097 311.03C76.8097 308.04 75.0797 306.17 76.9497 302.25C78.8197 298.33 84.2297 302.07 89.6497 298.33C95.0697 294.59 100.48 278.53 107.2 261.73C113.92 244.93 128.12 245.29 129.8 242.68C131.48 240.07 141 206.07 150.72 207.76C160.44 209.45 178 226.62 172.41 236C166.82 245.38 160.27 245.16 152.41 250.57C144.55 255.98 145.5 257.11 140.27 262.71C135.04 268.31 131.27 269.25 128.5 269.99C128.5 269.99 124.58 274.29 122.15 277.46C119.72 280.63 118.06 281.34 118.06 281.34Z" fill="white"/>
</mask>
<g mask="url(#mask0_7207_59)">
<path d="M99.3496 291.5C102.58 285.44 112.28 270.88 122.35 261.99C132.42 253.1 164.4 239.75 164.4 239.75L170.62 238.51C171.253 237.692 171.838 236.838 172.37 235.95C177.97 226.62 160.42 209.44 150.71 207.76C141 206.08 131.47 240.06 129.79 242.68C128.11 245.3 113.92 244.92 107.19 261.73C100.46 278.54 95.0495 294.6 89.6395 298.33C84.2295 302.06 78.8095 298.33 76.9395 302.25C75.0695 306.17 76.7495 308.04 77.4995 311.03C78.2495 314.02 75.0695 315.33 73.1995 321.67C71.3295 328.01 79.7395 336.61 82.1995 333.81C83.1196 332.388 83.7484 330.797 84.0495 329.13C82.511 324.979 82.0667 320.502 82.7595 316.13C83.9995 306.06 96.1096 297.57 99.3496 291.5Z" fill="#809CFF"/>
<path opacity="0.5" d="M99.3496 291.5C102.58 285.44 112.28 270.88 122.35 261.99C132.42 253.1 164.4 239.75 164.4 239.75L170.62 238.51C171.253 237.692 171.838 236.838 172.37 235.95C177.97 226.62 160.42 209.44 150.71 207.76C141 206.08 131.47 240.06 129.79 242.68C128.11 245.3 113.92 244.92 107.19 261.73C100.46 278.54 95.0495 294.6 89.6395 298.33C84.2295 302.06 78.8095 298.33 76.9395 302.25C75.0695 306.17 76.7495 308.04 77.4995 311.03C78.2495 314.02 75.0695 315.33 73.1995 321.67C71.3295 328.01 79.7395 336.61 82.1995 333.81C83.1196 332.388 83.7484 330.797 84.0495 329.13C82.511 324.979 82.0667 320.502 82.7595 316.13C83.9995 306.06 96.1096 297.57 99.3496 291.5Z" fill="white"/>
</g>
<path d="M118.06 281.34C107.79 288.06 96.2097 305.99 90.4197 313.27C84.6297 320.55 84.6397 331.01 82.2097 333.81C79.7797 336.61 71.3797 328.02 73.2097 321.67C75.0397 315.32 78.2097 314.02 77.5097 311.03C76.8097 308.04 75.0797 306.17 76.9497 302.25C78.8197 298.33 84.2297 302.07 89.6497 298.33C95.0697 294.59 100.48 278.53 107.2 261.73C113.92 244.93 128.12 245.29 129.8 242.68C131.48 240.07 141 206.07 150.72 207.76C160.44 209.45 178 226.62 172.41 236C166.82 245.38 160.27 245.16 152.41 250.57C144.55 255.98 145.5 257.11 140.27 262.71C135.04 268.31 131.27 269.25 128.5 269.99C128.5 269.99 124.58 274.29 122.15 277.46C119.72 280.63 118.06 281.34 118.06 281.34Z" stroke="#263238" stroke-miterlimit="10" stroke-linecap="round"/>
<path d="M116.64 282.34C114.364 282.199 112.128 281.671 110.03 280.78C105.93 279.06 104.32 274.61 103.72 270.67C98.5596 283.92 94.1196 295.27 89.7196 298.33C84.2996 302.07 78.8896 298.33 77.0196 302.25C75.1496 306.17 76.8296 308.04 77.5796 311.03C78.3296 314.02 75.1496 315.33 73.2796 321.67C71.4096 328.01 79.8196 336.61 82.2796 333.81C84.7396 331.01 84.7096 320.55 90.4896 313.27C95.9996 306.32 106.74 289.69 116.64 282.34Z" fill="#809CFF"/>
<mask id="mask1_7207_59" style="mask-type:luminance" maskUnits="userSpaceOnUse" x="73" y="270" width="44" height="65">
<path d="M116.64 282.34C114.364 282.199 112.128 281.671 110.03 280.78C105.93 279.06 104.32 274.61 103.72 270.67C98.5596 283.92 94.1196 295.27 89.7196 298.33C84.2996 302.07 78.8896 298.33 77.0196 302.25C75.1496 306.17 76.8296 308.04 77.5796 311.03C78.3296 314.02 75.1496 315.33 73.2796 321.67C71.4096 328.01 79.8196 336.61 82.2796 333.81C84.7396 331.01 84.7096 320.55 90.4896 313.27C95.9996 306.32 106.74 289.69 116.64 282.34Z" fill="white"/>
</mask>
<g mask="url(#mask1_7207_59)">
<path opacity="0.2" d="M82.2097 333.81C82.3513 333.641 82.4784 333.46 82.5897 333.27L82.6797 333.12C82.7897 332.92 82.8997 332.7 83.0097 332.45C83.0097 332.45 83.0097 332.36 83.0597 332.32C83.1497 332.1 83.2397 331.87 83.3197 331.63C83.3509 331.555 83.3776 331.478 83.3997 331.4C83.4997 331.12 83.5897 330.83 83.6797 330.53L83.7697 330.21C83.8297 329.98 83.8997 329.74 83.9697 329.49L84.0597 329.13C82.5212 324.979 82.0769 320.502 82.7697 316.13C83.9797 306.02 96.1097 297.53 99.3497 291.46C101.765 287.14 104.454 282.978 107.4 279C105.19 276.84 104.17 273.6 103.72 270.64L102.84 272.88L102.7 273.26L101.82 275.5L100.99 277.6L100.85 277.95C100.58 278.63 100.31 279.3 100.04 279.95L99.8997 280.3C99.6297 280.97 99.3597 281.63 99.0897 282.3L98.2897 284.18L98.1397 284.53C97.8797 285.13 97.6197 285.71 97.3597 286.28L97.2397 286.56L96.5097 288.14L96.4297 288.31C96.1697 288.85 95.9197 289.37 95.6697 289.87C95.6197 289.98 95.5597 290.08 95.5097 290.17C95.2597 290.67 95.0097 291.17 94.7597 291.62L94.6697 291.79L93.9597 293.04L93.8497 293.23C93.5997 293.65 93.3597 294.04 93.1097 294.42L92.9597 294.64C92.7097 295.02 92.4597 295.37 92.2197 295.7L92.1497 295.78C91.9197 296.09 91.6797 296.38 91.4497 296.65L91.3197 296.8C91.0797 297.08 90.8297 297.32 90.5897 297.55L90.4497 297.68C90.2122 297.895 89.9617 298.095 89.6997 298.28C88.2151 299.296 86.4923 299.909 84.6997 300.06C83.6997 300.16 82.8397 300.16 81.9897 300.17C81.2073 300.157 80.425 300.204 79.6497 300.31C79.0756 300.359 78.5248 300.56 78.0539 300.892C77.5829 301.224 77.2088 301.676 76.9697 302.2C76.4648 303.184 76.175 304.265 76.1197 305.37C76.1092 305.728 76.1293 306.086 76.1797 306.44C76.2 306.608 76.2301 306.775 76.2697 306.94C76.5497 308.27 77.1597 309.49 77.5297 310.94C77.6137 311.283 77.6507 311.637 77.6397 311.99C77.5597 313.33 76.6397 314.46 75.6397 316.21C74.6126 317.887 73.8123 319.693 73.2597 321.58C72.8342 323.235 72.9284 324.981 73.5297 326.58C73.9727 327.828 74.5851 329.009 75.3497 330.09C75.5997 330.45 75.8597 330.79 76.1297 331.09C78.2897 333.77 80.9997 335.21 82.2097 333.81Z" fill="black"/>
</g>
<path d="M116.64 282.34C114.364 282.199 112.128 281.671 110.03 280.78C105.93 279.06 104.32 274.61 103.72 270.67C98.5596 283.92 94.1196 295.27 89.7196 298.33C84.2996 302.07 78.8896 298.33 77.0196 302.25C75.1496 306.17 76.8296 308.04 77.5796 311.03C78.3296 314.02 75.1496 315.33 73.2796 321.67C71.4096 328.01 79.8196 336.61 82.2796 333.81C84.7396 331.01 84.7096 320.55 90.4896 313.27C95.9996 306.32 106.74 289.69 116.64 282.34Z" stroke="#263238" stroke-miterlimit="10" stroke-linecap="round"/>
<path d="M73 181.42C73 181.42 82.15 193.74 91.86 193.6C101.57 193.46 107.23 184.86 112.22 185.45C115.909 186.008 119.524 186.974 123 188.33C123 188.33 157.68 141.86 165.66 133.99C173.64 126.12 178.25 117.11 167.29 114.33C156.33 111.55 133.44 116.48 121.96 126.57C110.48 136.66 74.1 176.81 74.1 176.81L73 181.42Z" fill="#809CFF"/>
<mask id="mask2_7207_59" style="mask-type:luminance" maskUnits="userSpaceOnUse" x="73" y="113" width="101" height="81">
<path d="M73 181.42C73 181.42 82.15 193.74 91.86 193.6C101.57 193.46 107.23 184.86 112.22 185.45C115.909 186.008 119.524 186.974 123 188.33C123 188.33 157.68 141.86 165.66 133.99C173.64 126.12 178.25 117.11 167.29 114.33C156.33 111.55 133.44 116.48 121.96 126.57C110.48 136.66 74.1 176.81 74.1 176.81L73 181.42Z" fill="white"/>
</mask>
<g mask="url(#mask2_7207_59)">
<path opacity="0.5" d="M73 181.42C73 181.42 82.15 193.74 91.86 193.6C101.57 193.46 107.23 184.86 112.22 185.45C115.909 186.008 119.524 186.974 123 188.33C123 188.33 157.68 141.86 165.66 133.99C173.64 126.12 178.25 117.11 167.29 114.33C156.33 111.55 133.44 116.48 121.96 126.57C110.48 136.66 74.1 176.81 74.1 176.81L73 181.42Z" fill="black" stroke="#263238" stroke-miterlimit="10" stroke-linecap="round"/>
</g>
<path d="M73 181.42C73 181.42 82.15 193.74 91.86 193.6C101.57 193.46 107.23 184.86 112.22 185.45C115.909 186.008 119.524 186.974 123 188.33C123 188.33 157.68 141.86 165.66 133.99C173.64 126.12 178.25 117.11 167.29 114.33C156.33 111.55 133.44 116.48 121.96 126.57C110.48 136.66 74.1 176.81 74.1 176.81L73 181.42Z" stroke="#263238" stroke-miterlimit="10" stroke-linecap="round"/>
<path d="M204 72.92C204 72.92 206.8 66.2 212.4 63.21C216.134 61.3482 220.229 60.3243 224.4 60.21L238.96 51.21C238.96 51.21 243.07 37.01 257.08 31.21C271.09 25.41 330.66 3.76002 331.22 3.39002C331.78 3.02002 338.69 -0.349975 338.69 0.210025C338.698 1.17192 338.507 2.12509 338.13 3.01003C337.57 4.51003 323.75 13.47 323.75 13.47C323.75 13.47 330.47 9.36003 330.66 11.47C330.85 13.58 330.66 14.08 328.23 15.58C325.8 17.08 321.32 19.87 320.39 20.43C319.46 20.99 315.91 24.35 313.1 24.73C310.29 25.11 303.21 25.66 302.65 26.22C302.09 26.78 283.78 44.52 277.81 49.57C271.84 54.62 262.12 59.28 262.12 59.28C262.12 59.28 249.05 73.28 239.12 80.57C229.19 87.86 222.5 89.72 222.5 89.72L221.75 90.46C221.75 90.46 222.31 97 222.31 97.75C222.31 98.5 227.73 116.98 225.31 127.25C222.89 137.52 218.21 141.82 218.21 141.82C218.21 141.82 217.47 153.96 214.48 158.44C211.49 162.92 203.27 168.34 197.48 172.64C191.69 176.94 190.95 186.46 190.57 187.58C190.19 188.7 185.57 207.75 183.1 212.41C180.63 217.07 173.1 219.7 171.85 220.07C171.17 220.27 164.21 230.83 157.51 230.31C153.176 230.004 149.099 228.14 146.032 225.064C142.964 221.987 141.113 217.905 140.82 213.57C140.714 211.725 140.781 209.873 141.02 208.04C142.51 196.64 147.02 191.91 147.02 191.91C147.02 191.91 156.59 154.52 155.65 144.62C154.71 134.72 154.53 128.56 157.33 122.96C160.13 117.36 169.28 108.77 183.48 102.6C197.68 96.43 199.35 92.33 199.35 85.24C199.494 80.732 201.129 76.399 204 72.92Z" fill="white"/>
<mask id="mask3_7207_59" style="mask-type:luminance" maskUnits="userSpaceOnUse" x="140" y="0" width="199" height="231">
<path d="M204 72.92C204 72.92 206.8 66.2 212.4 63.21C216.134 61.3482 220.229 60.3243 224.4 60.21L238.96 51.21C238.96 51.21 243.07 37.01 257.08 31.21C271.09 25.41 330.66 3.76002 331.22 3.39002C331.78 3.02002 338.69 -0.349975 338.69 0.210025C338.698 1.17192 338.507 2.12509 338.13 3.01003C337.57 4.51003 323.75 13.47 323.75 13.47C323.75 13.47 330.47 9.36003 330.66 11.47C330.85 13.58 330.66 14.08 328.23 15.58C325.8 17.08 321.32 19.87 320.39 20.43C319.46 20.99 315.91 24.35 313.1 24.73C310.29 25.11 303.21 25.66 302.65 26.22C302.09 26.78 283.78 44.52 277.81 49.57C271.84 54.62 262.12 59.28 262.12 59.28C262.12 59.28 249.05 73.28 239.12 80.57C229.19 87.86 222.5 89.72 222.5 89.72L221.75 90.46C221.75 90.46 222.31 97 222.31 97.75C222.31 98.5 227.73 116.98 225.31 127.25C222.89 137.52 218.21 141.82 218.21 141.82C218.21 141.82 217.47 153.96 214.48 158.44C211.49 162.92 203.27 168.34 197.48 172.64C191.69 176.94 190.95 186.46 190.57 187.58C190.19 188.7 185.57 207.75 183.1 212.41C180.63 217.07 173.1 219.7 171.85 220.07C171.17 220.27 164.21 230.83 157.51 230.31C153.176 230.004 149.099 228.14 146.032 225.064C142.964 221.987 141.113 217.905 140.82 213.57C140.714 211.725 140.781 209.873 141.02 208.04C142.51 196.64 147.02 191.91 147.02 191.91C147.02 191.91 156.59 154.52 155.65 144.62C154.71 134.72 154.53 128.56 157.33 122.96C160.13 117.36 169.28 108.77 183.48 102.6C197.68 96.43 199.35 92.33 199.35 85.24C199.494 80.732 201.129 76.399 204 72.92Z" fill="white"/>
</mask>
<g mask="url(#mask3_7207_59)">
<path d="M224.79 109.62L224.68 109.57C224.68 109.57 223.87 121.7 221.85 129.79C219.83 137.88 211.34 143.13 211.34 143.13L206.89 155.26C206.89 155.26 196.78 164.55 190.31 164.55C183.84 164.55 183 159.3 183 159.3C176.91 154.12 163.7 150.55 155.13 152.57C153.79 163.16 150.06 179.18 148.13 187.12C151.74 189.05 157.53 190.87 166.02 190.03C174.791 189.073 183.358 186.748 191.41 183.14C192.26 179.74 193.91 175.24 197.41 172.65L199.36 171.22C193.5 173.66 186.06 181.61 180.59 182.34C174.52 183.15 172.5 181.94 172.91 179.51C173.32 177.08 181.73 178.62 184.63 177.51C187.53 176.4 185.04 175.9 178.97 175.09C172.9 174.28 174.12 171.85 174.12 171.85C174.12 171.85 183.97 172.67 185.84 171.85C187.71 171.03 200.84 167.85 206.84 162.55C212.84 157.25 213.36 146 213.36 146L218.02 143.67C218.12 142.56 218.16 141.87 218.16 141.87C218.16 141.87 222.83 137.58 225.26 127.3C226.43 122.32 225.78 115.48 224.79 109.62Z" fill="#809CFF"/>
<path d="M274.15 45.33C262.47 50.39 260.15 48.83 260.15 48.83C261.162 49.5598 262.112 50.3726 262.99 51.26C264.68 52.9 262.48 58.17 256.25 62.85C250.02 67.53 229.77 80 226.27 80C222.77 80 222.77 68.33 222.77 68.33C221.296 75.5684 220.999 82.997 221.89 90.33L222.46 89.77C222.46 89.77 229.18 87.9 239.08 80.62C248.98 73.34 262.08 59.33 262.08 59.33C262.08 59.33 271.79 54.66 277.77 49.62C281.05 46.85 288.04 40.25 293.77 34.77C287.479 38.7355 280.924 42.2638 274.15 45.33Z" fill="#809CFF"/>
<path opacity="0.5" d="M274.15 45.33C262.47 50.39 260.15 48.83 260.15 48.83C261.162 49.5598 262.112 50.3726 262.99 51.26C264.68 52.9 262.48 58.17 256.25 62.85C250.02 67.53 229.77 80 226.27 80C222.77 80 222.77 68.33 222.77 68.33C221.296 75.5684 220.999 82.997 221.89 90.33L222.46 89.77C222.46 89.77 229.18 87.9 239.08 80.62C248.98 73.34 262.08 59.33 262.08 59.33C262.08 59.33 271.79 54.66 277.77 49.62C281.05 46.85 288.04 40.25 293.77 34.77C287.479 38.7355 280.924 42.2638 274.15 45.33Z" fill="white"/>
<path opacity="0.5" d="M224.79 109.62L224.68 109.57C224.68 109.57 223.87 121.7 221.85 129.79C219.83 137.88 211.34 143.13 211.34 143.13L206.89 155.26C206.89 155.26 196.78 164.55 190.31 164.55C183.84 164.55 183 159.3 183 159.3C176.91 154.12 163.7 150.55 155.13 152.57C153.79 163.16 150.06 179.18 148.13 187.12C151.74 189.05 157.53 190.87 166.02 190.03C174.791 189.073 183.358 186.748 191.41 183.14C192.26 179.74 193.91 175.24 197.41 172.65L199.36 171.22C193.5 173.66 186.06 181.61 180.59 182.34C174.52 183.15 172.5 181.94 172.91 179.51C173.32 177.08 181.73 178.62 184.63 177.51C187.53 176.4 185.04 175.9 178.97 175.09C172.9 174.28 174.12 171.85 174.12 171.85C174.12 171.85 183.97 172.67 185.84 171.85C187.71 171.03 200.84 167.85 206.84 162.55C212.84 157.25 213.36 146 213.36 146L218.02 143.67C218.12 142.56 218.16 141.87 218.16 141.87C218.16 141.87 222.83 137.58 225.26 127.3C226.43 122.32 225.78 115.48 224.79 109.62Z" fill="white"/>
</g>
<path d="M204 72.92C204 72.92 206.8 66.2 212.4 63.21C216.134 61.3482 220.229 60.3243 224.4 60.21L238.96 51.21C238.96 51.21 243.07 37.01 257.08 31.21C271.09 25.41 330.66 3.76002 331.22 3.39002C331.78 3.02002 338.69 -0.349975 338.69 0.210025C338.698 1.17192 338.507 2.12509 338.13 3.01003C337.57 4.51003 323.75 13.47 323.75 13.47C323.75 13.47 330.47 9.36003 330.66 11.47C330.85 13.58 330.66 14.08 328.23 15.58C325.8 17.08 321.32 19.87 320.39 20.43C319.46 20.99 315.91 24.35 313.1 24.73C310.29 25.11 303.21 25.66 302.65 26.22C302.09 26.78 283.78 44.52 277.81 49.57C271.84 54.62 262.12 59.28 262.12 59.28C262.12 59.28 249.05 73.28 239.12 80.57C229.19 87.86 222.5 89.72 222.5 89.72L221.75 90.46C221.75 90.46 222.31 97 222.31 97.75C222.31 98.5 227.73 116.98 225.31 127.25C222.89 137.52 218.21 141.82 218.21 141.82C218.21 141.82 217.47 153.96 214.48 158.44C211.49 162.92 203.27 168.34 197.48 172.64C191.69 176.94 190.95 186.46 190.57 187.58C190.19 188.7 185.57 207.75 183.1 212.41C180.63 217.07 173.1 219.7 171.85 220.07C171.17 220.27 164.21 230.83 157.51 230.31C153.176 230.004 149.099 228.14 146.032 225.064C142.964 221.987 141.113 217.905 140.82 213.57C140.714 211.725 140.781 209.873 141.02 208.04C142.51 196.64 147.02 191.91 147.02 191.91C147.02 191.91 156.59 154.52 155.65 144.62C154.71 134.72 154.53 128.56 157.33 122.96C160.13 117.36 169.28 108.77 183.48 102.6C197.68 96.43 199.35 92.33 199.35 85.24C199.494 80.732 201.129 76.399 204 72.92Z" stroke="#263238" stroke-miterlimit="10" stroke-linecap="round"/>
<path d="M217.994 137.404C219.969 129.007 217.213 121.174 211.837 119.909C206.461 118.644 200.501 124.426 198.525 132.824C196.549 141.221 199.306 149.054 204.682 150.319C210.058 151.584 216.018 145.802 217.994 137.404Z" fill="#809CFF"/>
<path d="M184 172.65C173.91 174.89 170 170.03 170 170.03C170 170.03 171.12 177.5 181.77 178.62" stroke="#263238" stroke-linecap="round" stroke-linejoin="round"/>
<path d="M207.71 127.64C207.71 127.64 213.5 141.64 208.83 152.29C204.16 162.94 197.43 167 184.74 169.1" stroke="#263238" stroke-miterlimit="10" stroke-linecap="round"/>
<path d="M195.57 172.83C195.57 172.83 187.91 179.74 181.93 181.98C175.95 184.22 171.29 188.15 166.25 181.42" stroke="#263238" stroke-miterlimit="10" stroke-linecap="round"/>
<path d="M255.7 51.44C255.7 51.44 260.37 48.27 262.98 51.26C265.59 54.25 262.05 59.26 262.05 59.26" stroke="#263238" stroke-linecap="round" stroke-linejoin="round"/>
<path d="M223.21 65.26C222.198 70.2593 221.46 75.3102 221 80.39C220.74 83.7681 220.99 87.166 221.74 90.47" stroke="#263238" stroke-linecap="round" stroke-linejoin="round"/>
<path d="M179.23 133.16L190.42 127.22" stroke="#263238" stroke-miterlimit="10" stroke-linecap="round"/>
<path d="M331.15 3.45004C330.65 3.78004 283.34 21 263.15 28.85C264.97 28.93 274.51 29.73 277.04 38C278.152 41.5263 278.666 45.214 278.56 48.91C285.2 43.14 302.09 26.77 302.63 26.23C303.17 25.69 310.28 25.11 313.08 24.74C315.88 24.37 319.43 21 320.37 20.44C321.31 19.88 325.78 17.08 328.21 15.59C330.64 14.1 330.83 13.53 330.64 11.48C330.45 9.43004 323.73 13.48 323.73 13.48C323.73 13.48 337.55 4.48004 338.11 3.02004C338.487 2.13509 338.678 1.18194 338.67 0.220042C338.62 -0.289958 331.71 3.07004 331.15 3.45004Z" fill="#809CFF" stroke="#263238" stroke-linecap="round" stroke-linejoin="round"/>
<path d="M323.68 13.53L317.14 16.89" stroke="#263238" stroke-linecap="round" stroke-linejoin="round"/>
<path d="M191.85 181.65C189.76 182.46 187.12 183.55 184.6 184.76C177.602 188.128 170.055 190.208 162.32 190.9C156.24 191.41 151.07 188.69 148.24 186.77C147.47 189.93 146.97 191.92 146.97 191.92C146.97 191.92 142.46 196.65 140.97 208.05C140.73 209.883 140.663 211.734 140.77 213.58C141.063 217.915 142.914 221.997 145.982 225.074C149.049 228.15 153.126 230.014 157.46 230.32C164.16 230.84 171.12 220.32 171.8 220.08C173.1 219.71 180.63 217.08 183.05 212.42C185.47 207.76 190.15 188.71 190.52 187.59C190.7 187.05 191 184.56 191.85 181.65Z" fill="#263238" stroke="#263238" stroke-miterlimit="10" stroke-linecap="round"/>
<path d="M151.8 197.43C151.8 197.43 159.8 193.98 167.88 196.85" stroke="white" stroke-width="0.75" stroke-linecap="round" stroke-linejoin="round"/>
<path d="M168.68 187.61C158.37 188.77 152.4 185 149.37 182.02C148.68 185.02 148.08 187.46 147.64 189.21C152.924 192.5 159.164 193.909 165.35 193.21C176.47 191.84 186.56 187.29 191.03 185.03C191.07 184.797 191.12 184.557 191.18 184.31C191.33 183.58 191.53 182.79 191.77 181.95C191.77 181.9 191.77 181.85 191.82 181.79C191.9 181.53 191.98 181.26 192.07 180.99C192.074 180.95 192.074 180.91 192.07 180.87C192.378 179.946 192.742 179.041 193.16 178.16C185.92 183.31 177.502 186.559 168.68 187.61Z" fill="#809CFF" stroke="#263238" stroke-miterlimit="10" stroke-linecap="round"/>
<path d="M137.36 122C137.36 122 135.55 122.92 142.08 118.63C148.61 114.34 146.64 120.55 151.08 109.53C155.52 98.51 160.42 90.3 168.45 87.31C176.48 84.32 200.2 88.62 200.2 88.62L205.8 92.54L198 107.66C196.122 106.736 194.068 106.223 191.976 106.158C189.884 106.092 187.802 106.475 185.87 107.28C179.52 110.08 176.15 113.44 176.87 116.43C177.59 119.42 183.59 127.64 183.59 127.64C183.59 127.64 155.31 116.53 150.83 118.95C146.35 121.37 132.7 126.33 131.95 126.71C131.2 127.09 137.36 122 137.36 122Z" fill="#809CFF" stroke="#263238" stroke-miterlimit="10" stroke-linecap="round"/>
<path d="M154.77 113.25C155.72 111.86 156.77 110.25 157.84 108.4C162.7 100.19 172.41 96.64 172.41 96.64" stroke="#263238" stroke-miterlimit="10" stroke-linecap="round"/>
<path d="M173.12 105.61C170.498 106.253 168.03 107.408 165.857 109.009C163.684 110.611 161.85 112.626 160.46 114.94" stroke="#263238" stroke-miterlimit="10" stroke-linecap="round"/>
<path d="M167.93 132.31C167.93 132.31 156.54 130.63 147.93 137.91C139.32 145.19 140.29 153 140.29 153C140.29 153 131.88 156.73 130.2 161C129.218 163.523 128.547 166.155 128.2 168.84C128.2 168.84 123.72 173.14 119.98 177.43C116.24 181.72 113.07 182.43 112.32 188.08C111.57 193.73 111.95 207.5 116.06 221.13C120.17 234.76 122.97 240.74 124.06 243.13C125.15 245.52 134.89 257.88 136.57 258.26C138.25 258.64 139.93 259 141.24 258.26C142.55 257.52 152.24 255.26 151.89 252.47C151.818 250.98 151.294 249.547 150.39 248.36L150.02 247.8C150.02 247.8 151.7 244.62 150.58 243.13C149.46 241.64 148.52 241.45 146.47 239.58C144.42 237.71 143.3 237.15 140.87 237.15C138.44 237.15 135.87 237.34 135.87 237.34C135.87 237.34 132.13 235.84 132.13 225.01C132.13 214.18 135.49 204.84 137.13 200.01C138.12 197.248 138.687 194.352 138.81 191.42C138.81 191.42 140.12 193.29 149.27 188.99C158.42 184.69 160.48 172.56 160.48 172.56L147 174.7C153.599 174.121 160.113 172.807 166.42 170.78C176.88 167.42 181.36 166.86 185.42 150.98" fill="white"/>
<mask id="mask4_7207_59" style="mask-type:luminance" maskUnits="userSpaceOnUse" x="112" y="132" width="74" height="127">
<path d="M167.93 132.31C167.93 132.31 156.54 130.63 147.93 137.91C139.32 145.19 140.29 153 140.29 153C140.29 153 131.88 156.73 130.2 161C129.218 163.523 128.547 166.155 128.2 168.84C128.2 168.84 123.72 173.14 119.98 177.43C116.24 181.72 113.07 182.43 112.32 188.08C111.57 193.73 111.95 207.5 116.06 221.13C120.17 234.76 122.97 240.74 124.06 243.13C125.15 245.52 134.89 257.88 136.57 258.26C138.25 258.64 139.93 259 141.24 258.26C142.55 257.52 152.24 255.26 151.89 252.47C151.818 250.98 151.294 249.547 150.39 248.36L150.02 247.8C150.02 247.8 151.7 244.62 150.58 243.13C149.46 241.64 148.52 241.45 146.47 239.58C144.42 237.71 143.3 237.15 140.87 237.15C138.44 237.15 135.87 237.34 135.87 237.34C135.87 237.34 132.13 235.84 132.13 225.01C132.13 214.18 135.49 204.84 137.13 200.01C138.12 197.248 138.687 194.352 138.81 191.42C138.81 191.42 140.12 193.29 149.27 188.99C158.42 184.69 160.48 172.56 160.48 172.56L147 174.7C153.599 174.121 160.113 172.807 166.42 170.78C176.88 167.42 181.36 166.86 185.42 150.98" fill="white"/>
</mask>
<g mask="url(#mask4_7207_59)">
<path d="M150.17 166.93C148.25 164.36 159.17 156.93 162.06 154.08C164.95 151.23 152.74 158.9 149.85 159.54C146.96 160.18 144.39 158.25 146 149.26C147.162 143.611 149.905 138.409 153.91 134.26C151.737 135.162 149.714 136.389 147.91 137.9C139.32 145.18 140.26 153.03 140.26 153.03C140.26 153.03 131.85 156.76 130.17 161.03C129.188 163.553 128.517 166.185 128.17 168.87C128.17 168.87 123.69 173.17 119.95 177.46C116.21 181.75 113.04 182.46 112.29 188.11C111.54 193.76 111.92 207.53 116.03 221.16C120.14 234.79 122.94 240.77 124.03 243.16C125.12 245.55 134.86 257.91 136.54 258.29C138.22 258.67 139.9 259.03 141.21 258.29C142.52 257.55 152.21 255.29 151.86 252.5C151.777 251.823 151.64 251.155 151.45 250.5C147.87 250.95 141.32 253.24 139.56 253.24C137.64 253.24 135.71 250.35 132.82 247.13C129.93 243.91 125.43 235.57 124.82 225.29C124.21 215.01 128.67 205.37 128.67 200.55C128.67 195.73 122.89 206.98 124.17 202.16C125.45 197.34 130.6 190.27 134.45 188.34C138.3 186.41 142.81 185.13 144.45 181.92C146.09 178.71 138.67 180.92 141.24 178.38C143.81 175.84 160.52 172.54 165.98 169.38C171.44 166.22 152.1 169.5 150.17 166.93Z" fill="#809CFF"/>
<path opacity="0.5" d="M150.17 166.93C148.25 164.36 159.17 156.93 162.06 154.08C164.95 151.23 152.74 158.9 149.85 159.54C146.96 160.18 144.39 158.25 146 149.26C147.162 143.611 149.905 138.409 153.91 134.26C151.737 135.162 149.714 136.389 147.91 137.9C139.32 145.18 140.26 153.03 140.26 153.03C140.26 153.03 131.85 156.76 130.17 161.03C129.188 163.553 128.517 166.185 128.17 168.87C128.17 168.87 123.69 173.17 119.95 177.46C116.21 181.75 113.04 182.46 112.29 188.11C111.54 193.76 111.92 207.53 116.03 221.16C120.14 234.79 122.94 240.77 124.03 243.16C125.12 245.55 134.86 257.91 136.54 258.29C138.22 258.67 139.9 259.03 141.21 258.29C142.52 257.55 152.21 255.29 151.86 252.5C151.777 251.823 151.64 251.155 151.45 250.5C147.87 250.95 141.32 253.24 139.56 253.24C137.64 253.24 135.71 250.35 132.82 247.13C129.93 243.91 125.43 235.57 124.82 225.29C124.21 215.01 128.67 205.37 128.67 200.55C128.67 195.73 122.89 206.98 124.17 202.16C125.45 197.34 130.6 190.27 134.45 188.34C138.3 186.41 142.81 185.13 144.45 181.92C146.09 178.71 138.67 180.92 141.24 178.38C143.81 175.84 160.52 172.54 165.98 169.38C171.44 166.22 152.1 169.5 150.17 166.93Z" fill="white"/>
</g>
<path d="M167.93 132.31C167.93 132.31 156.54 130.63 147.93 137.91C139.32 145.19 140.29 153 140.29 153C140.29 153 131.88 156.73 130.2 161C129.218 163.523 128.547 166.155 128.2 168.84C128.2 168.84 123.72 173.14 119.98 177.43C116.24 181.72 113.07 182.43 112.32 188.08C111.57 193.73 111.95 207.5 116.06 221.13C120.17 234.76 122.97 240.74 124.06 243.13C125.15 245.52 134.89 257.88 136.57 258.26C138.25 258.64 139.93 259 141.24 258.26C142.55 257.52 152.24 255.26 151.89 252.47C151.818 250.98 151.294 249.547 150.39 248.36L150.02 247.8C150.02 247.8 151.7 244.62 150.58 243.13C149.46 241.64 148.52 241.45 146.47 239.58C144.42 237.71 143.3 237.15 140.87 237.15C138.44 237.15 135.87 237.34 135.87 237.34C135.87 237.34 132.13 235.84 132.13 225.01C132.13 214.18 135.49 204.84 137.13 200.01C138.12 197.248 138.687 194.352 138.81 191.42C138.81 191.42 140.12 193.29 149.27 188.99C158.42 184.69 160.48 172.56 160.48 172.56L147 174.7C153.599 174.121 160.113 172.807 166.42 170.78C176.88 167.42 181.36 166.86 185.42 150.98" stroke="#263238" stroke-miterlimit="10" stroke-linecap="round"/>
<path d="M138.79 191.51L137.72 182.94" stroke="#263238" stroke-linecap="round" stroke-linejoin="round"/>
<path d="M191.64 125.21C197.06 123.53 198.37 116.81 201.54 109.71C204.046 104.439 206.871 99.3265 210 94.4C204.534 94.4751 199.098 93.5883 193.94 91.78C185.53 88.78 175.63 90.85 173.77 92.9C171.91 94.95 172.09 92.34 172.46 98.69C172.83 105.04 175.26 114.19 177.46 117.37C179.66 120.55 181.01 122.37 181.01 122.37" fill="white"/>
<mask id="mask5_7207_59" style="mask-type:luminance" maskUnits="userSpaceOnUse" x="172" y="90" width="38" height="36">
<path d="M191.64 125.21C197.06 123.53 198.37 116.81 201.54 109.71C204.046 104.439 206.871 99.3265 210 94.4C204.534 94.4751 199.098 93.5883 193.94 91.78C185.53 88.78 175.63 90.85 173.77 92.9C171.91 94.95 172.09 92.34 172.46 98.69C172.83 105.04 175.26 114.19 177.46 117.37C179.66 120.55 181.01 122.37 181.01 122.37" fill="white"/>
</mask>
<g mask="url(#mask5_7207_59)">
<path d="M207.6 94.38C202.927 94.1926 198.307 93.3165 193.89 91.78C185.48 88.78 175.58 90.85 173.72 92.9C171.86 94.95 172.04 92.34 172.41 98.69C172.78 105.04 175.21 114.19 177.41 117.37L178.21 118.49L208.06 94.61L207.6 94.38Z" fill="#809CFF"/>
<path opacity="0.5" d="M207.6 94.38C202.927 94.1926 198.307 93.3165 193.89 91.78C185.48 88.78 175.58 90.85 173.72 92.9C171.86 94.95 172.04 92.34 172.41 98.69C172.78 105.04 175.21 114.19 177.41 117.37L178.21 118.49L208.06 94.61L207.6 94.38Z" fill="white"/>
</g>
<path d="M191.64 125.21C197.06 123.53 198.37 116.81 201.54 109.71C204.046 104.439 206.871 99.3265 210 94.4C204.534 94.4751 199.098 93.5883 193.94 91.78C185.53 88.78 175.63 90.85 173.77 92.9C171.91 94.95 172.09 92.34 172.46 98.69C172.83 105.04 175.26 114.19 177.46 117.37C179.66 120.55 181.01 122.37 181.01 122.37" stroke="#263238" stroke-miterlimit="10" stroke-linecap="round"/>
<path d="M190.34 114.19C193.655 114.216 196.96 113.809 200.17 112.98C200.6 111.91 201.05 110.82 201.54 109.71C204.046 104.439 206.871 99.3265 210 94.4C204.534 94.4751 199.098 93.5883 193.94 91.78C185.53 88.78 175.63 90.85 173.77 92.9C171.91 94.95 172.09 92.34 172.46 98.69C172.734 102.34 173.367 105.954 174.35 109.48C177.37 112 182.32 114.11 190.34 114.19Z" stroke="#263238" stroke-miterlimit="10" stroke-linecap="round"/>
<path d="M192.1 122.25L187.6 102.44" stroke="#263238" stroke-linecap="round" stroke-linejoin="round"/>
<path d="M197.31 57.16C197.848 54.9513 198.242 52.7099 198.49 50.45C198.87 46.9 190.34 40.61 181.56 41.36C172.78 42.11 175.96 50.7 174.84 53.5C173.72 56.3 165.31 53.31 163.07 58.35C160.83 63.39 164.75 64.89 164.75 66.35C164.75 67.81 157.84 71.77 158.75 80.55C159.66 89.33 174.81 97.91 178.17 98.66C181.53 99.41 185.64 96.23 185.64 93.66C185.64 91.09 191.24 90.11 192.74 87.66C194.24 85.21 190.31 76.83 190.49 74.96C190.67 73.09 196.49 65.63 194.6 63.76C192.71 61.89 197.31 57.16 197.31 57.16Z" fill="#263238" stroke="#263238" stroke-miterlimit="10" stroke-linecap="round"/>
<path d="M188.37 59.26C188.37 59.26 191.27 58.94 191.27 52.51C191.27 46.08 181.95 47.69 180.66 50.26C179.37 52.83 180.34 57.6501 177.13 58.9401C173.92 60.2301 168.77 60.22 168.77 62.79V66.3301" stroke="white" stroke-width="0.75" stroke-linecap="round" stroke-linejoin="round"/>
<path d="M180 64.4C180 64.4 168.11 63.76 162 74.68" stroke="white" stroke-width="0.75" stroke-linecap="round" stroke-linejoin="round"/>
<path d="M181.63 67.29C181.63 67.29 173.63 67.6101 169.42 73.0701" stroke="white" stroke-width="0.75" stroke-linecap="round" stroke-linejoin="round"/>
<path d="M195.33 58.34C195.86 57.65 202.77 64.83 203.04 65.64C203.313 66.627 203.53 67.6286 203.69 68.64C203.721 68.8291 203.791 69.0099 203.894 69.1714C203.997 69.333 204.132 69.472 204.29 69.5801L209.12 72.89C209.432 73.1082 209.645 73.4401 209.714 73.8143C209.784 74.1884 209.703 74.5748 209.49 74.89L207.81 77.31C207.664 77.5158 207.576 77.7571 207.554 78.0086C207.533 78.2602 207.58 78.5128 207.69 78.7401C209.04 81.6401 213.82 91.9401 213.5 92.7401C213.124 93.7223 212.387 94.5236 211.44 94.98C210.51 95.35 193.33 101.14 191.27 101.33C189.69 101.47 185.89 94.9801 184.21 91.9601C184.012 91.6273 183.691 91.3867 183.316 91.291C182.94 91.1954 182.543 91.2526 182.21 91.45C181.49 91.8658 180.678 92.0954 179.846 92.1181C179.015 92.1408 178.192 91.9559 177.45 91.5801C173.71 89.8901 169.45 86.72 171.28 83.17C173.11 79.62 176.14 79.44 177.45 80.37C178.32 80.99 179.86 82.2901 180.79 83.0701C181.014 83.2648 181.294 83.3849 181.589 83.4135C181.885 83.4422 182.182 83.3781 182.44 83.23L183.23 82.7701C183.418 82.6674 183.581 82.5237 183.707 82.3495C183.832 82.1753 183.917 81.9751 183.954 81.7638C183.991 81.5525 183.981 81.3355 183.923 81.1289C183.865 80.9222 183.762 80.7312 183.62 80.5701C183.321 80.1902 183.084 79.7648 182.92 79.31C182.92 79.31 188.33 74.64 186.47 72.03C184.61 69.42 179.56 65.4901 180.12 63.4401C180.68 61.3901 188.12 58.7701 191.32 58.7701C192.51 58.7301 194.94 58.86 195.33 58.34Z" fill="white"/>
<mask id="mask6_7207_59" style="mask-type:luminance" maskUnits="userSpaceOnUse" x="170" y="58" width="44" height="44">
<path d="M195.33 58.34C195.86 57.65 202.77 64.83 203.04 65.64C203.313 66.627 203.53 67.6286 203.69 68.64C203.721 68.8291 203.791 69.0099 203.894 69.1714C203.997 69.333 204.132 69.472 204.29 69.5801L209.12 72.89C209.432 73.1082 209.645 73.4401 209.714 73.8143C209.784 74.1884 209.703 74.5748 209.49 74.89L207.81 77.31C207.664 77.5158 207.576 77.7571 207.554 78.0086C207.533 78.2602 207.58 78.5128 207.69 78.7401C209.04 81.6401 213.82 91.9401 213.5 92.7401C213.124 93.7223 212.387 94.5236 211.44 94.98C210.51 95.35 193.33 101.14 191.27 101.33C189.69 101.47 185.89 94.9801 184.21 91.9601C184.012 91.6273 183.691 91.3867 183.316 91.291C182.94 91.1954 182.543 91.2526 182.21 91.45C181.49 91.8658 180.678 92.0954 179.846 92.1181C179.015 92.1408 178.192 91.9559 177.45 91.5801C173.71 89.8901 169.45 86.72 171.28 83.17C173.11 79.62 176.14 79.44 177.45 80.37C178.32 80.99 179.86 82.2901 180.79 83.0701C181.014 83.2648 181.294 83.3849 181.589 83.4135C181.885 83.4422 182.182 83.3781 182.44 83.23L183.23 82.7701C183.418 82.6674 183.581 82.5237 183.707 82.3495C183.832 82.1753 183.917 81.9751 183.954 81.7638C183.991 81.5525 183.981 81.3355 183.923 81.1289C183.865 80.9222 183.762 80.7312 183.62 80.5701C183.321 80.1902 183.084 79.7648 182.92 79.31C182.92 79.31 188.33 74.64 186.47 72.03C184.61 69.42 179.56 65.4901 180.12 63.4401C180.68 61.3901 188.12 58.7701 191.32 58.7701C192.51 58.7301 194.94 58.86 195.33 58.34Z" fill="white"/>
</mask>
<g mask="url(#mask6_7207_59)">
<path d="M186.42 72.0001C188.28 74.6101 182.87 79.2801 182.87 79.2801C183.034 79.7348 183.271 80.1602 183.57 80.54C183.712 80.7012 183.815 80.8922 183.873 81.0989C183.931 81.3055 183.941 81.5225 183.904 81.7338C183.866 81.9451 183.782 82.1453 183.657 82.3195C183.531 82.4937 183.368 82.6374 183.18 82.7401L182.39 83.2001C182.132 83.3481 181.835 83.4122 181.539 83.3835C181.244 83.3549 180.964 83.2348 180.74 83.04C179.81 82.26 178.27 80.96 177.4 80.34C176.09 79.41 173.1 79.5901 171.23 83.1401C169.36 86.6901 173.66 89.8601 177.4 91.5501C178.141 91.9259 178.965 92.1108 179.796 92.0881C180.627 92.0654 181.44 91.8358 182.16 91.4201C182.493 91.2226 182.89 91.1654 183.265 91.2611C183.64 91.3567 183.962 91.5973 184.16 91.93C185.84 94.93 189.64 101.44 191.22 101.3C193.28 101.11 210.46 95.3001 211.39 94.9501C212.337 94.4936 213.074 93.6923 213.45 92.7101C213.45 92.7101 206.03 96.2201 201.99 92.5801C197.95 88.9401 192.69 83.69 191.07 81.26C189.45 78.83 192.82 73.4601 189.45 68.3201C186.08 63.1801 180.02 63.3901 180.02 63.3901C179.51 65.4501 184.55 69.3701 186.42 72.0001Z" fill="#809CFF"/>
<path opacity="0.5" d="M186.42 72.0001C188.28 74.6101 182.87 79.2801 182.87 79.2801C183.034 79.7348 183.271 80.1602 183.57 80.54C183.712 80.7012 183.815 80.8922 183.873 81.0989C183.931 81.3055 183.941 81.5225 183.904 81.7338C183.866 81.9451 183.782 82.1453 183.657 82.3195C183.531 82.4937 183.368 82.6374 183.18 82.7401L182.39 83.2001C182.132 83.3481 181.835 83.4122 181.539 83.3835C181.244 83.3549 180.964 83.2348 180.74 83.04C179.81 82.26 178.27 80.96 177.4 80.34C176.09 79.41 173.1 79.5901 171.23 83.1401C169.36 86.6901 173.66 89.8601 177.4 91.5501C178.141 91.9259 178.965 92.1108 179.796 92.0881C180.627 92.0654 181.44 91.8358 182.16 91.4201C182.493 91.2226 182.89 91.1654 183.265 91.2611C183.64 91.3567 183.962 91.5973 184.16 91.93C185.84 94.93 189.64 101.44 191.22 101.3C193.28 101.11 210.46 95.3001 211.39 94.9501C212.337 94.4936 213.074 93.6923 213.45 92.7101C213.45 92.7101 206.03 96.2201 201.99 92.5801C197.95 88.9401 192.69 83.69 191.07 81.26C189.45 78.83 192.82 73.4601 189.45 68.3201C186.08 63.1801 180.02 63.3901 180.02 63.3901C179.51 65.4501 184.55 69.3701 186.42 72.0001Z" fill="white"/>
</g>
<path d="M195.33 58.34C195.86 57.65 202.77 64.83 203.04 65.64C203.313 66.627 203.53 67.6286 203.69 68.64C203.721 68.8291 203.791 69.0099 203.894 69.1714C203.997 69.333 204.132 69.472 204.29 69.5801L209.12 72.89C209.432 73.1082 209.645 73.4401 209.714 73.8143C209.784 74.1884 209.703 74.5748 209.49 74.89L207.81 77.31C207.664 77.5158 207.576 77.7571 207.554 78.0086C207.533 78.2602 207.58 78.5128 207.69 78.7401C209.04 81.6401 213.82 91.9401 213.5 92.7401C213.124 93.7223 212.387 94.5236 211.44 94.98C210.51 95.35 193.33 101.14 191.27 101.33C189.69 101.47 185.89 94.9801 184.21 91.9601C184.012 91.6273 183.691 91.3867 183.316 91.291C182.94 91.1954 182.543 91.2526 182.21 91.45C181.49 91.8658 180.678 92.0954 179.846 92.1181C179.015 92.1408 178.192 91.9559 177.45 91.5801C173.71 89.8901 169.45 86.72 171.28 83.17C173.11 79.62 176.14 79.44 177.45 80.37C178.32 80.99 179.86 82.2901 180.79 83.0701C181.014 83.2648 181.294 83.3849 181.589 83.4135C181.885 83.4422 182.182 83.3781 182.44 83.23L183.23 82.7701C183.418 82.6674 183.581 82.5237 183.707 82.3495C183.832 82.1753 183.917 81.9751 183.954 81.7638C183.991 81.5525 183.981 81.3355 183.923 81.1289C183.865 80.9222 183.762 80.7312 183.62 80.5701C183.321 80.1902 183.084 79.7648 182.92 79.31C182.92 79.31 188.33 74.64 186.47 72.03C184.61 69.42 179.56 65.4901 180.12 63.4401C180.68 61.3901 188.12 58.7701 191.32 58.7701C192.51 58.7301 194.94 58.86 195.33 58.34Z" stroke="#263238" stroke-miterlimit="10" stroke-linecap="round"/>
<path d="M200.57 68.34C200.57 68.34 196.57 68.34 195.44 68.91C194.31 69.48 192.87 73.47 192.87 73.47L196.58 71.19L200.85 70.34L201.99 67.21L200.57 68.34Z" fill="#263238"/>
<path d="M200.85 72.33L197.43 74.04H200.85" fill="white"/>
<path d="M200.85 72.33L197.43 74.04H200.85" stroke="#263238" stroke-miterlimit="10" stroke-linecap="round"/>
<path d="M197.25 255.38C190.781 257.37 184.574 260.126 178.76 263.59C170 269 155.41 277.6 148.88 278C142.35 278.4 140.29 276.32 136.37 274.83C132.45 273.34 130.37 278.19 130.37 280.99C130.37 283.79 130.37 285.1 128.5 287.72C126.63 290.34 121.8 300 121.8 300C121.8 300 119.18 310.46 121.8 310.83C124.42 311.2 126.09 307.66 131.51 303.18C136.93 298.7 145.51 288.98 153.17 288.24C160.83 287.5 195.01 283.94 209.17 277.24C223.33 270.54 222.43 272.38 226.54 269.24C230.65 266.1 229.15 260.09 227.1 255.98C226.009 253.657 224.414 251.607 222.43 249.98" fill="white"/>
<mask id="mask7_7207_59" style="mask-type:luminance" maskUnits="userSpaceOnUse" x="120" y="249" width="110" height="62">
<path d="M197.25 255.38C190.781 257.37 184.574 260.126 178.76 263.59C170 269 155.41 277.6 148.88 278C142.35 278.4 140.29 276.32 136.37 274.83C132.45 273.34 130.37 278.19 130.37 280.99C130.37 283.79 130.37 285.1 128.5 287.72C126.63 290.34 121.8 300 121.8 300C121.8 300 119.18 310.46 121.8 310.83C124.42 311.2 126.09 307.66 131.51 303.18C136.93 298.7 145.51 288.98 153.17 288.24C160.83 287.5 195.01 283.94 209.17 277.24C223.33 270.54 222.43 272.38 226.54 269.24C230.65 266.1 229.15 260.09 227.1 255.98C226.009 253.657 224.414 251.607 222.43 249.98" fill="white"/>
</mask>
<g mask="url(#mask7_7207_59)">
<path d="M217.61 273.46C215.93 273.16 214.61 272.72 214.61 272.1C214.61 270.48 219.46 270.48 221.89 267.25C224.32 264.02 221.48 260.78 218.25 257.14C217.01 255.75 215.48 253.76 213.83 251.82L197.29 255.38C190.821 257.37 184.614 260.126 178.8 263.59C170 269 155.41 277.6 148.88 278C142.35 278.4 140.29 276.32 136.37 274.83C132.45 273.34 130.37 278.19 130.37 280.99C130.37 283.79 130.37 285.1 128.5 287.72C126.63 290.34 121.8 300 121.8 300C121.8 300 119.18 310.46 121.8 310.83C124.42 311.2 126.09 307.66 131.51 303.18C136.93 298.7 145.51 288.98 153.17 288.24C160.83 287.5 195.01 283.94 209.17 277.24C212.93 275.46 215.6 274.29 217.61 273.46Z" fill="#809CFF"/>
<path opacity="0.5" d="M217.61 273.46C215.93 273.16 214.61 272.72 214.61 272.1C214.61 270.48 219.46 270.48 221.89 267.25C224.32 264.02 221.48 260.78 218.25 257.14C217.01 255.75 215.48 253.76 213.83 251.82L197.29 255.38C190.821 257.37 184.614 260.126 178.8 263.59C170 269 155.41 277.6 148.88 278C142.35 278.4 140.29 276.32 136.37 274.83C132.45 273.34 130.37 278.19 130.37 280.99C130.37 283.79 130.37 285.1 128.5 287.72C126.63 290.34 121.8 300 121.8 300C121.8 300 119.18 310.46 121.8 310.83C124.42 311.2 126.09 307.66 131.51 303.18C136.93 298.7 145.51 288.98 153.17 288.24C160.83 287.5 195.01 283.94 209.17 277.24C212.93 275.46 215.6 274.29 217.61 273.46Z" fill="white"/>
</g>
<path d="M197.25 255.38C190.781 257.37 184.574 260.126 178.76 263.59C170 269 155.41 277.6 148.88 278C142.35 278.4 140.29 276.32 136.37 274.83C132.45 273.34 130.37 278.19 130.37 280.99C130.37 283.79 130.37 285.1 128.5 287.72C126.63 290.34 121.8 300 121.8 300C121.8 300 119.18 310.46 121.8 310.83C124.42 311.2 126.09 307.66 131.51 303.18C136.93 298.7 145.51 288.98 153.17 288.24C160.83 287.5 195.01 283.94 209.17 277.24C223.33 270.54 222.43 272.38 226.54 269.24C230.65 266.1 229.15 260.09 227.1 255.98C226.009 253.657 224.414 251.607 222.43 249.98" stroke="#263238" stroke-miterlimit="10" stroke-linecap="round"/>
<path d="M227.91 258C227.91 258 223.46 240.61 193.7 215.46C173.7 198.54 164.75 194.92 153.36 205C141.97 215.08 144.21 221.63 148.36 228C152.51 234.37 169.27 246.49 183.09 252.66C196.91 258.83 210.92 267.41 218.76 266.66" fill="white"/>
<mask id="mask8_7207_59" style="mask-type:luminance" maskUnits="userSpaceOnUse" x="144" y="199" width="84" height="68">
<path d="M227.91 258C227.91 258 223.46 240.61 193.7 215.46C173.7 198.54 164.75 194.92 153.36 205C141.97 215.08 144.21 221.63 148.36 228C152.51 234.37 169.27 246.49 183.09 252.66C196.91 258.83 210.92 267.41 218.76 266.66" fill="white"/>
</mask>
<g mask="url(#mask8_7207_59)">
<path d="M205.68 245.41C201.63 245.01 208.91 253.1 200.42 251.07C191.93 249.04 162.42 223.99 156.35 215.9C151.35 209.24 155.68 203.69 157.35 201.9C155.935 202.786 154.597 203.79 153.35 204.9C141.96 214.99 144.2 221.52 148.35 227.9C152.5 234.28 169.26 246.39 183.08 252.56C196.9 258.73 210.91 267.31 218.75 266.56L222.48 263.06C221.81 261.16 220.09 259.21 218.24 257.12C215 253.5 209.72 245.82 205.68 245.41Z" fill="#809CFF"/>
<path opacity="0.5" d="M205.68 245.41C201.63 245.01 208.91 253.1 200.42 251.07C191.93 249.04 162.42 223.99 156.35 215.9C151.35 209.24 155.68 203.69 157.35 201.9C155.935 202.786 154.597 203.79 153.35 204.9C141.96 214.99 144.2 221.52 148.35 227.9C152.5 234.28 169.26 246.39 183.08 252.56C196.9 258.73 210.91 267.31 218.75 266.56L222.48 263.06C221.81 261.16 220.09 259.21 218.24 257.12C215 253.5 209.72 245.82 205.68 245.41Z" fill="white"/>
</g>
<path d="M227.91 258C227.91 258 223.46 240.61 193.7 215.46C173.7 198.54 164.75 194.92 153.36 205C141.97 215.08 144.21 221.63 148.36 228C152.51 234.37 169.27 246.49 183.09 252.66C196.91 258.83 210.92 267.41 218.76 266.66" stroke="#263238" stroke-miterlimit="10" stroke-linecap="round"/>
<path d="M182.12 274.43C180.23 270.26 180.69 265.57 181.6 261.95C180.65 262.47 179.7 263.01 178.76 263.59C170 269 155.41 277.6 148.88 278C142.35 278.4 140.29 276.32 136.37 274.83C132.45 273.34 130.37 278.19 130.37 280.99C130.37 283.79 130.37 285.1 128.5 287.72C126.63 290.34 121.8 300 121.8 300C121.8 300 119.18 310.46 121.8 310.83C124.42 311.2 126.09 307.66 131.51 303.18C136.93 298.7 145.51 288.98 153.17 288.24C165.984 287.023 178.727 285.151 191.35 282.63C187.311 281.222 183.993 278.275 182.12 274.43Z" fill="#809CFF"/>
<mask id="mask9_7207_59" style="mask-type:luminance" maskUnits="userSpaceOnUse" x="120" y="261" width="72" height="50">
<path d="M182.12 274.43C180.23 270.26 180.69 265.57 181.6 261.95C180.65 262.47 179.7 263.01 178.76 263.59C170 269 155.41 277.6 148.88 278C142.35 278.4 140.29 276.32 136.37 274.83C132.45 273.34 130.37 278.19 130.37 280.99C130.37 283.79 130.37 285.1 128.5 287.72C126.63 290.34 121.8 300 121.8 300C121.8 300 119.18 310.46 121.8 310.83C124.42 311.2 126.09 307.66 131.51 303.18C136.93 298.7 145.51 288.98 153.17 288.24C165.984 287.023 178.727 285.151 191.35 282.63C187.311 281.222 183.993 278.275 182.12 274.43Z" fill="white"/>
</mask>
<g mask="url(#mask9_7207_59)">
<path opacity="0.2" d="M182.12 274.43C180.23 270.26 180.69 265.57 181.6 261.95C180.65 262.47 179.7 263.01 178.76 263.59C170 269 155.41 277.6 148.88 278C142.35 278.4 140.29 276.32 136.37 274.83C132.45 273.34 130.37 278.19 130.37 280.99C130.37 283.79 130.37 285.1 128.5 287.72C126.63 290.34 121.8 300 121.8 300C121.8 300 119.18 310.46 121.8 310.83C124.42 311.2 126.09 307.66 131.51 303.18C136.93 298.7 145.51 288.98 153.17 288.24C165.984 287.023 178.727 285.151 191.35 282.63C187.311 281.222 183.993 278.275 182.12 274.43Z" fill="black"/>
</g>
<path d="M182.12 274.43C180.23 270.26 180.69 265.57 181.6 261.95C180.65 262.47 179.7 263.01 178.76 263.59C170 269 155.41 277.6 148.88 278C142.35 278.4 140.29 276.32 136.37 274.83C132.45 273.34 130.37 278.19 130.37 280.99C130.37 283.79 130.37 285.1 128.5 287.72C126.63 290.34 121.8 300 121.8 300C121.8 300 119.18 310.46 121.8 310.83C124.42 311.2 126.09 307.66 131.51 303.18C136.93 298.7 145.51 288.98 153.17 288.24C165.984 287.023 178.727 285.151 191.35 282.63C187.311 281.222 183.993 278.275 182.12 274.43Z" stroke="#263238" stroke-linecap="round" stroke-linejoin="round"/>
<path d="M149.71 225.43C149.71 225.43 190.56 251.57 202.54 255.93C214.52 260.29 211.8 252.11 211.8 252.11" stroke="#263238" stroke-linecap="round" stroke-linejoin="round"/>
<path d="M186.2 276.62C186.2 276.62 197.64 277.71 205.26 270.62" stroke="#263238" stroke-linecap="round" stroke-linejoin="round"/>
<path d="M183.69 130.24C183.69 130.24 169.21 120.77 152.45 122.77C135.69 124.77 115.79 141.91 102.89 156.57C89.9898 171.23 32.6398 251.19 32.6398 251.19L30.8598 238.12C30.0266 231.963 31.6543 225.725 35.3898 220.76L44.4998 208.63C44.4998 208.63 45.4098 193.71 53.4998 186.05C58.8715 181.026 64.7076 176.522 70.9298 172.6C73.0198 171.16 93.9298 150.21 108.68 135.23C123.43 120.25 141.33 109.52 157.55 114.06C173.77 118.6 180.27 122.06 184.05 125.4C187.83 128.74 187.96 128.4 187.96 128.4L183.69 130.24Z" fill="#809CFF" stroke="#263238" stroke-miterlimit="10" stroke-linecap="round"/>
<path d="M85.3896 165.78L88.7596 161.99" stroke="#263238" stroke-miterlimit="10" stroke-linecap="round"/>
<path d="M44.5 208.63L84 167.08" stroke="#263238" stroke-miterlimit="10" stroke-linecap="round"/>
<path d="M140.55 120.55C139.49 120.97 138.43 121.44 137.36 121.99" stroke="#263238" stroke-miterlimit="10" stroke-linecap="round"/>
<path d="M185.51 129.83C185.51 129.83 165.08 113.4 143.71 119.49" stroke="#263238" stroke-miterlimit="10" stroke-linecap="round"/>
<path d="M150 247.91C150 247.91 151.68 244.73 150.56 243.24C149.44 241.75 148.5 241.56 146.45 239.69C144.4 237.82 143.28 237.26 140.85 237.26C138.42 237.26 135.85 237.45 135.85 237.45C135.85 237.45 132.11 235.95 132.11 225.12C132.208 218.434 133.307 211.801 135.37 205.44C132.096 207.377 128.429 208.553 124.64 208.88C122.366 209.127 120.068 208.793 117.959 207.91C115.849 207.027 113.999 205.623 112.58 203.83C113.187 209.712 114.332 215.527 116 221.2C120.11 234.83 122.91 240.81 124 243.2C125.09 245.59 134.83 257.95 136.51 258.33C138.19 258.71 139.87 259.07 141.18 258.33C142.49 257.59 152.18 255.33 151.83 252.54C151.757 251.05 151.234 249.617 150.33 248.43L150 247.91Z" fill="#809CFF"/>
<mask id="mask10_7207_59" style="mask-type:luminance" maskUnits="userSpaceOnUse" x="112" y="203" width="40" height="56">
<path d="M150 247.91C150 247.91 151.68 244.73 150.56 243.24C149.44 241.75 148.5 241.56 146.45 239.69C144.4 237.82 143.28 237.26 140.85 237.26C138.42 237.26 135.85 237.45 135.85 237.45C135.85 237.45 132.11 235.95 132.11 225.12C132.208 218.434 133.307 211.801 135.37 205.44C132.096 207.377 128.429 208.553 124.64 208.88C122.366 209.127 120.068 208.793 117.959 207.91C115.849 207.027 113.999 205.623 112.58 203.83C113.187 209.712 114.332 215.527 116 221.2C120.11 234.83 122.91 240.81 124 243.2C125.09 245.59 134.83 257.95 136.51 258.33C138.19 258.71 139.87 259.07 141.18 258.33C142.49 257.59 152.18 255.33 151.83 252.54C151.757 251.05 151.234 249.617 150.33 248.43L150 247.91Z" fill="white"/>
</mask>
<g mask="url(#mask10_7207_59)">
<path opacity="0.2" d="M151.869 252.58C151.869 252.28 151.779 252.01 151.729 251.76C151.729 251.68 151.729 251.6 151.729 251.52C151.729 251.44 151.649 251.16 151.609 251C151.569 250.84 151.529 250.73 151.499 250.61C147.919 251.06 141.369 253.35 139.609 253.35C137.689 253.35 135.759 250.46 132.869 247.24C129.979 244.02 125.479 235.68 124.869 225.4C124.479 219.24 125.939 213.32 127.169 208.51C126.369 208.67 125.549 208.79 124.669 208.88C122.396 209.127 120.097 208.793 117.988 207.91C115.879 207.027 114.029 205.623 112.609 203.83C112.609 204.09 112.669 204.36 112.699 204.62C112.749 205.08 112.809 205.54 112.869 206.02C112.869 206.33 112.959 206.66 112.999 207.02C113.039 207.38 113.129 207.88 113.189 208.32C113.249 208.76 113.299 208.99 113.349 209.32C113.399 209.65 113.499 210.2 113.579 210.64L113.759 211.64L113.999 213L114.209 214C114.309 214.47 114.419 214.95 114.529 215.43C114.599 215.75 114.669 216.07 114.749 216.38C114.879 216.92 115.019 217.46 115.159 217.99C115.219 218.26 115.289 218.53 115.359 218.79C115.579 219.6 115.809 220.41 116.049 221.21C120.159 234.84 122.959 240.82 124.049 243.21C124.14 243.403 124.244 243.59 124.359 243.77C124.559 244.11 124.819 244.52 125.139 244.99C125.669 245.77 126.349 246.7 127.139 247.72L127.609 248.33C130.929 252.7 135.489 258.09 136.609 258.33C138.289 258.7 139.969 259.07 141.279 258.33C141.765 258.101 142.266 257.908 142.779 257.75L143.549 257.5C146.749 256.46 152.149 254.68 151.869 252.58Z" fill="black"/>
<path d="M148.93 244.58L146.58 246.53C146.58 246.53 148.32 246.41 150.37 248.47" stroke="#263238" stroke-linecap="round" stroke-linejoin="round"/>
</g>
<path d="M150 247.91C150 247.91 151.68 244.73 150.56 243.24C149.44 241.75 148.5 241.56 146.45 239.69C144.4 237.82 143.28 237.26 140.85 237.26C138.42 237.26 135.85 237.45 135.85 237.45C135.85 237.45 132.11 235.95 132.11 225.12C132.208 218.434 133.307 211.801 135.37 205.44C132.096 207.377 128.429 208.553 124.64 208.88C122.366 209.127 120.068 208.793 117.959 207.91C115.849 207.027 113.999 205.623 112.58 203.83C113.187 209.712 114.332 215.527 116 221.2C120.11 234.83 122.91 240.81 124 243.2C125.09 245.59 134.83 257.95 136.51 258.33C138.19 258.71 139.87 259.07 141.18 258.33C142.49 257.59 152.18 255.33 151.83 252.54C151.757 251.05 151.234 249.617 150.33 248.43L150 247.91Z" stroke="#263238" stroke-linecap="round" stroke-linejoin="round"/>
<path d="M295.84 52.96L263.64 83.19" stroke="#263238" stroke-linecap="round" stroke-linejoin="round"/>
<path d="M260.62 86.02L255.4 90.92" stroke="#263238" stroke-linecap="round" stroke-linejoin="round"/>
<path d="M62.5497 244.48L56.9297 249.76" stroke="#263238" stroke-linecap="round" stroke-linejoin="round"/>
<path d="M104.13 205.46L67.0698 240.24" stroke="#263238" stroke-linecap="round" stroke-linejoin="round"/>
<path d="M139 313.68L135.28 317.17" stroke="#263238" stroke-linecap="round" stroke-linejoin="round"/>
<path d="M162.22 291.88L142.76 310.14" stroke="#263238" stroke-linecap="round" stroke-linejoin="round"/>
<path d="M4.76978 261.52L0.279785 265.74" stroke="#263238" stroke-linecap="round" stroke-linejoin="round"/>
<path d="M47.4895 221.44L10.7896 255.88" stroke="#263238" stroke-linecap="round" stroke-linejoin="round"/>
<path d="M112.66 118.12L107.03 123.4" stroke="#263238" stroke-linecap="round" stroke-linejoin="round"/>
<path d="M154.24 79.1L117.54 113.55" stroke="#263238" stroke-linecap="round" stroke-linejoin="round"/>
<path d="M287.86 68.21L240.65 112.51" stroke="#263238" stroke-linecap="round" stroke-linejoin="round"/>
<path d="M357.21 173.85C350.4 170.14 347.31 173.23 344.84 170.14C342.37 167.05 351.64 159 333.08 151C333.08 151 331.84 133.67 306.47 133C281.1 132.33 287.91 150.33 281.1 154.66C274.29 158.99 272.44 152.18 265.63 156.52C258.82 160.86 261.92 169.52 256.35 170.75C250.78 171.98 243.35 165.18 236.55 169.51C229.75 173.84 229.74 177.51 226.65 177.51C223.56 177.51 217.37 175.04 213.65 177.51C209.93 179.98 205.6 183.08 205.6 183.08H362.16C362.16 183.08 364 177.56 357.21 173.85Z" fill="white"/>
<path d="M130.4 73.71C127.77 72.28 126.58 73.47 125.62 72.28C124.66 71.09 128.25 67.98 121.09 64.88C121.09 64.88 120.61 58.19 110.82 57.95C101.03 57.71 103.66 64.64 101.03 66.31C98.4001 67.98 97.6901 65.31 95.0301 67.02C92.3701 68.73 93.6001 72.02 91.4501 72.52C89.3001 73.02 86.4501 70.37 83.8101 72.04C81.1701 73.71 81.1801 75.14 79.9901 75.14C78.8001 75.14 76.4101 74.19 74.9901 75.14C73.5701 76.09 71.8901 77.29 71.8901 77.29H132.3C132.3 77.29 133 75.14 130.4 73.71Z" fill="white"/>
</g>
<defs>
<clipPath id="clip0_7207_59">
<rect width="375" height="334" fill="white"/>
</clipPath>
</defs>
</svg>
